<svg width="407" height="75" viewBox="0 0 407 75" fill="none" xmlns="http://www.w3.org/2000/svg">
<g clip-path="url(#clip0_630_49)">
<mask id="path-1-outside-1_630_49" maskUnits="userSpaceOnUse" x="255" y="23" width="151" height="30" fill="black">
<rect fill="white" x="255" y="23" width="151" height="30"/>
<path d="M259.643 25.4062L264.793 39.8555L270.295 25.4062H273.037V51H270.998V39.6621L271.139 28.3945L265.461 43.3008H264.09L258.852 28.6582L258.992 39.6621V51H256.936V25.4062H259.643ZM289.212 51C289.083 50.5781 288.983 50.127 288.913 49.6465C288.854 49.166 288.813 48.6797 288.79 48.1875C288.427 48.668 287.999 49.1074 287.507 49.5059C287.026 49.8926 286.499 50.2207 285.925 50.4902C285.339 50.7715 284.718 50.9824 284.061 51.123C283.417 51.2754 282.743 51.3516 282.04 51.3516C281.161 51.3516 280.335 51.2227 279.561 50.9648C278.788 50.707 278.12 50.3438 277.557 49.875C276.995 49.4062 276.55 48.8438 276.222 48.1875C275.893 47.5195 275.729 46.7754 275.729 45.9551C275.729 44.8652 275.97 43.9395 276.45 43.1777C276.942 42.416 277.599 41.7891 278.419 41.2969C279.227 40.8281 280.171 40.4883 281.249 40.2773C282.327 40.0547 283.458 39.9375 284.641 39.9258H288.772V37.7812C288.761 37.0664 288.62 36.4395 288.35 35.9004C288.081 35.3496 287.712 34.8926 287.243 34.5293C286.774 34.166 286.218 33.8906 285.573 33.7031C284.94 33.5039 284.255 33.4043 283.516 33.4043C282.837 33.4043 282.186 33.4922 281.565 33.668C280.944 33.8438 280.393 34.0957 279.913 34.4238C279.444 34.752 279.057 35.1562 278.753 35.6367C278.46 36.1055 278.307 36.6387 278.296 37.2363L276.186 37.2188C276.222 36.4102 276.438 35.666 276.837 34.9863C277.235 34.3066 277.768 33.7148 278.436 33.2109C279.104 32.7188 279.878 32.332 280.757 32.0508C281.647 31.7695 282.597 31.6289 283.604 31.6289C284.612 31.6289 285.556 31.7578 286.434 32.0156C287.313 32.2734 288.081 32.6543 288.737 33.1582C289.382 33.6855 289.891 34.3359 290.266 35.1094C290.653 35.8828 290.852 36.7852 290.864 37.8164V47.0098C290.864 47.6543 290.917 48.2988 291.022 48.9434C291.14 49.5879 291.28 50.2031 291.444 50.7891L291.462 51H289.212ZM282.268 49.4707C283.007 49.4824 283.71 49.4004 284.378 49.2246C285.046 49.0371 285.661 48.7793 286.224 48.4512C286.786 48.123 287.284 47.7305 287.718 47.2734C288.151 46.8164 288.503 46.3066 288.772 45.7441V41.5605H284.94C283.897 41.5723 282.907 41.6602 281.97 41.8242C281.032 41.9883 280.229 42.2812 279.561 42.7031C279.022 43.043 278.595 43.4648 278.278 43.9688C277.974 44.4609 277.821 45.0586 277.821 45.7617C277.821 46.3359 277.938 46.8516 278.173 47.3086C278.407 47.7656 278.724 48.1523 279.122 48.4688C279.52 48.7969 279.989 49.0488 280.528 49.2246C281.079 49.3887 281.659 49.4707 282.268 49.4707ZM294.875 51V31.9805H296.808L296.931 35.6719C297.224 35.1211 297.57 34.6113 297.969 34.1426C298.367 33.6738 298.812 33.2695 299.304 32.9297C299.879 32.5312 300.511 32.2148 301.203 31.9805C301.906 31.7461 302.65 31.6289 303.435 31.6289C304.478 31.6289 305.398 31.7871 306.195 32.1035C307.004 32.4199 307.677 32.8828 308.217 33.4922C308.767 34.1133 309.183 34.8691 309.465 35.7598C309.746 36.6504 309.886 37.6641 309.886 38.8008V51H307.795V38.8359C307.783 37.9688 307.677 37.2012 307.478 36.5332C307.291 35.8652 306.998 35.3027 306.599 34.8457C306.189 34.3887 305.679 34.043 305.07 33.8086C304.472 33.5742 303.758 33.4629 302.926 33.4746C302.199 33.4746 301.513 33.6035 300.869 33.8613C300.224 34.1074 299.638 34.4414 299.111 34.8633C298.619 35.2617 298.191 35.7363 297.828 36.2871C297.465 36.8262 297.183 37.4004 296.984 38.0098V51H294.875ZM313.001 41.3145C313.001 40.0605 313.153 38.8594 313.458 37.7109C313.774 36.5508 314.231 35.5312 314.829 34.6523C315.45 33.7383 316.235 33.0059 317.184 32.4551C318.133 31.9043 319.258 31.6289 320.559 31.6289C321.755 31.6289 322.839 31.8926 323.811 32.4199C324.784 32.9355 325.581 33.6504 326.202 34.5645V24H328.294V51H326.342L326.272 48.5742C325.616 49.4766 324.784 50.168 323.776 50.6484C322.768 51.1172 321.684 51.3516 320.524 51.3516C319.27 51.3516 318.169 51.0762 317.219 50.5254C316.282 49.9746 315.497 49.248 314.864 48.3457C314.255 47.4551 313.792 46.4297 313.475 45.2695C313.159 44.1094 313.001 42.9141 313.001 41.6836V41.3145ZM315.11 41.6836C315.11 42.6328 315.21 43.5703 315.409 44.4961C315.62 45.4102 315.948 46.2422 316.393 46.9922C316.862 47.7305 317.46 48.334 318.186 48.8027C318.924 49.2715 319.833 49.5059 320.911 49.5059C322.083 49.5059 323.143 49.2129 324.092 48.627C325.042 48.041 325.745 47.2324 326.202 46.2012V37.0781C325.768 36 325.089 35.1328 324.163 34.4766C323.249 33.8086 322.176 33.4746 320.946 33.4746C319.856 33.4746 318.936 33.709 318.186 34.1777C317.448 34.6465 316.85 35.2559 316.393 36.0059C315.948 36.7559 315.62 37.5938 315.409 38.5195C315.21 39.4453 315.11 40.377 315.11 41.3145V41.6836ZM344.943 31.6289C345.459 31.6289 345.98 31.6641 346.507 31.7344C347.046 31.793 347.498 31.8809 347.861 31.998L347.58 34.0371C347.099 33.9316 346.613 33.8496 346.121 33.791C345.628 33.7324 345.125 33.7031 344.609 33.7031C343.718 33.7031 342.88 33.8086 342.095 34.0195C341.322 34.2188 340.625 34.5352 340.003 34.9688C339.406 35.3906 338.884 35.9238 338.439 36.5684C338.005 37.2012 337.671 37.957 337.437 38.8359L337.455 51H335.292V31.9805H337.296L337.419 34.916V35.7598C338.158 34.459 339.166 33.4453 340.443 32.7188C341.72 31.9805 343.22 31.6172 344.943 31.6289ZM351.59 31.9805H360.414V49.1191H366.883V51H351.59V49.1191H358.323V33.8613H351.59V31.9805ZM357.707 26.7773C357.707 26.5547 357.737 26.3438 357.795 26.1445C357.854 25.9453 357.954 25.7695 358.094 25.6172C358.223 25.4766 358.387 25.3711 358.586 25.3008C358.786 25.2188 359.02 25.1777 359.289 25.1777C359.559 25.1777 359.793 25.2188 359.993 25.3008C360.192 25.3711 360.35 25.4766 360.467 25.6172C360.608 25.7578 360.713 25.9277 360.784 26.127C360.854 26.3262 360.889 26.543 360.889 26.7773C360.889 27.1992 360.76 27.5625 360.502 27.8672C360.245 28.1719 359.84 28.3242 359.289 28.3242C358.727 28.3242 358.323 28.1719 358.077 27.8672C357.83 27.5625 357.707 27.1992 357.707 26.7773ZM370.331 24H379.191V49.1191H385.624V51H370.331V49.1191H377.099V25.8809H370.331V24ZM389.072 24H397.932V49.1191H404.365V51H389.072V49.1191H395.84V25.8809H389.072V24Z"/>
</mask>
<path d="M259.643 25.4062L264.793 39.8555L270.295 25.4062H273.037V51H270.998V39.6621L271.139 28.3945L265.461 43.3008H264.09L258.852 28.6582L258.992 39.6621V51H256.936V25.4062H259.643ZM289.212 51C289.083 50.5781 288.983 50.127 288.913 49.6465C288.854 49.166 288.813 48.6797 288.79 48.1875C288.427 48.668 287.999 49.1074 287.507 49.5059C287.026 49.8926 286.499 50.2207 285.925 50.4902C285.339 50.7715 284.718 50.9824 284.061 51.123C283.417 51.2754 282.743 51.3516 282.04 51.3516C281.161 51.3516 280.335 51.2227 279.561 50.9648C278.788 50.707 278.12 50.3438 277.557 49.875C276.995 49.4062 276.55 48.8438 276.222 48.1875C275.893 47.5195 275.729 46.7754 275.729 45.9551C275.729 44.8652 275.97 43.9395 276.45 43.1777C276.942 42.416 277.599 41.7891 278.419 41.2969C279.227 40.8281 280.171 40.4883 281.249 40.2773C282.327 40.0547 283.458 39.9375 284.641 39.9258H288.772V37.7812C288.761 37.0664 288.62 36.4395 288.35 35.9004C288.081 35.3496 287.712 34.8926 287.243 34.5293C286.774 34.166 286.218 33.8906 285.573 33.7031C284.94 33.5039 284.255 33.4043 283.516 33.4043C282.837 33.4043 282.186 33.4922 281.565 33.668C280.944 33.8438 280.393 34.0957 279.913 34.4238C279.444 34.752 279.057 35.1562 278.753 35.6367C278.46 36.1055 278.307 36.6387 278.296 37.2363L276.186 37.2188C276.222 36.4102 276.438 35.666 276.837 34.9863C277.235 34.3066 277.768 33.7148 278.436 33.2109C279.104 32.7188 279.878 32.332 280.757 32.0508C281.647 31.7695 282.597 31.6289 283.604 31.6289C284.612 31.6289 285.556 31.7578 286.434 32.0156C287.313 32.2734 288.081 32.6543 288.737 33.1582C289.382 33.6855 289.891 34.3359 290.266 35.1094C290.653 35.8828 290.852 36.7852 290.864 37.8164V47.0098C290.864 47.6543 290.917 48.2988 291.022 48.9434C291.14 49.5879 291.28 50.2031 291.444 50.7891L291.462 51H289.212ZM282.268 49.4707C283.007 49.4824 283.71 49.4004 284.378 49.2246C285.046 49.0371 285.661 48.7793 286.224 48.4512C286.786 48.123 287.284 47.7305 287.718 47.2734C288.151 46.8164 288.503 46.3066 288.772 45.7441V41.5605H284.94C283.897 41.5723 282.907 41.6602 281.97 41.8242C281.032 41.9883 280.229 42.2812 279.561 42.7031C279.022 43.043 278.595 43.4648 278.278 43.9688C277.974 44.4609 277.821 45.0586 277.821 45.7617C277.821 46.3359 277.938 46.8516 278.173 47.3086C278.407 47.7656 278.724 48.1523 279.122 48.4688C279.52 48.7969 279.989 49.0488 280.528 49.2246C281.079 49.3887 281.659 49.4707 282.268 49.4707ZM294.875 51V31.9805H296.808L296.931 35.6719C297.224 35.1211 297.57 34.6113 297.969 34.1426C298.367 33.6738 298.812 33.2695 299.304 32.9297C299.879 32.5312 300.511 32.2148 301.203 31.9805C301.906 31.7461 302.65 31.6289 303.435 31.6289C304.478 31.6289 305.398 31.7871 306.195 32.1035C307.004 32.4199 307.677 32.8828 308.217 33.4922C308.767 34.1133 309.183 34.8691 309.465 35.7598C309.746 36.6504 309.886 37.6641 309.886 38.8008V51H307.795V38.8359C307.783 37.9688 307.677 37.2012 307.478 36.5332C307.291 35.8652 306.998 35.3027 306.599 34.8457C306.189 34.3887 305.679 34.043 305.07 33.8086C304.472 33.5742 303.758 33.4629 302.926 33.4746C302.199 33.4746 301.513 33.6035 300.869 33.8613C300.224 34.1074 299.638 34.4414 299.111 34.8633C298.619 35.2617 298.191 35.7363 297.828 36.2871C297.465 36.8262 297.183 37.4004 296.984 38.0098V51H294.875ZM313.001 41.3145C313.001 40.0605 313.153 38.8594 313.458 37.7109C313.774 36.5508 314.231 35.5312 314.829 34.6523C315.45 33.7383 316.235 33.0059 317.184 32.4551C318.133 31.9043 319.258 31.6289 320.559 31.6289C321.755 31.6289 322.839 31.8926 323.811 32.4199C324.784 32.9355 325.581 33.6504 326.202 34.5645V24H328.294V51H326.342L326.272 48.5742C325.616 49.4766 324.784 50.168 323.776 50.6484C322.768 51.1172 321.684 51.3516 320.524 51.3516C319.27 51.3516 318.169 51.0762 317.219 50.5254C316.282 49.9746 315.497 49.248 314.864 48.3457C314.255 47.4551 313.792 46.4297 313.475 45.2695C313.159 44.1094 313.001 42.9141 313.001 41.6836V41.3145ZM315.11 41.6836C315.11 42.6328 315.21 43.5703 315.409 44.4961C315.62 45.4102 315.948 46.2422 316.393 46.9922C316.862 47.7305 317.46 48.334 318.186 48.8027C318.924 49.2715 319.833 49.5059 320.911 49.5059C322.083 49.5059 323.143 49.2129 324.092 48.627C325.042 48.041 325.745 47.2324 326.202 46.2012V37.0781C325.768 36 325.089 35.1328 324.163 34.4766C323.249 33.8086 322.176 33.4746 320.946 33.4746C319.856 33.4746 318.936 33.709 318.186 34.1777C317.448 34.6465 316.85 35.2559 316.393 36.0059C315.948 36.7559 315.62 37.5938 315.409 38.5195C315.21 39.4453 315.11 40.377 315.11 41.3145V41.6836ZM344.943 31.6289C345.459 31.6289 345.98 31.6641 346.507 31.7344C347.046 31.793 347.498 31.8809 347.861 31.998L347.58 34.0371C347.099 33.9316 346.613 33.8496 346.121 33.791C345.628 33.7324 345.125 33.7031 344.609 33.7031C343.718 33.7031 342.88 33.8086 342.095 34.0195C341.322 34.2188 340.625 34.5352 340.003 34.9688C339.406 35.3906 338.884 35.9238 338.439 36.5684C338.005 37.2012 337.671 37.957 337.437 38.8359L337.455 51H335.292V31.9805H337.296L337.419 34.916V35.7598C338.158 34.459 339.166 33.4453 340.443 32.7188C341.72 31.9805 343.22 31.6172 344.943 31.6289ZM351.59 31.9805H360.414V49.1191H366.883V51H351.59V49.1191H358.323V33.8613H351.59V31.9805ZM357.707 26.7773C357.707 26.5547 357.737 26.3438 357.795 26.1445C357.854 25.9453 357.954 25.7695 358.094 25.6172C358.223 25.4766 358.387 25.3711 358.586 25.3008C358.786 25.2188 359.02 25.1777 359.289 25.1777C359.559 25.1777 359.793 25.2188 359.993 25.3008C360.192 25.3711 360.35 25.4766 360.467 25.6172C360.608 25.7578 360.713 25.9277 360.784 26.127C360.854 26.3262 360.889 26.543 360.889 26.7773C360.889 27.1992 360.76 27.5625 360.502 27.8672C360.245 28.1719 359.84 28.3242 359.289 28.3242C358.727 28.3242 358.323 28.1719 358.077 27.8672C357.83 27.5625 357.707 27.1992 357.707 26.7773ZM370.331 24H379.191V49.1191H385.624V51H370.331V49.1191H377.099V25.8809H370.331V24ZM389.072 24H397.932V49.1191H404.365V51H389.072V49.1191H395.84V25.8809H389.072V24Z" fill="#2E2E2E"/>
<path d="M259.643 25.4062L260.585 25.0705L260.348 24.4062H259.643V25.4062ZM264.793 39.8555L263.851 40.1912L264.762 42.7469L265.728 40.2113L264.793 39.8555ZM270.295 25.4062V24.4062H269.606L269.36 25.0504L270.295 25.4062ZM273.037 25.4062H274.037V24.4062H273.037V25.4062ZM273.037 51V52H274.037V51H273.037ZM270.998 51H269.998V52H270.998V51ZM270.998 39.6621L269.998 39.6496V39.6621H270.998ZM271.139 28.3945L272.139 28.407L270.204 28.0386L271.139 28.3945ZM265.461 43.3008V44.3008H266.15L266.395 43.6567L265.461 43.3008ZM264.09 43.3008L263.148 43.6376L263.386 44.3008H264.09V43.3008ZM258.852 28.6582L259.793 28.3214L257.852 28.671L258.852 28.6582ZM258.992 39.6621L259.992 39.6621L259.992 39.6493L258.992 39.6621ZM258.992 51V52H259.992V51H258.992ZM256.936 51H255.936V52H256.936V51ZM256.936 25.4062V24.4062H255.936V25.4062H256.936ZM258.701 25.742L263.851 40.1912L265.735 39.5197L260.585 25.0705L258.701 25.742ZM265.728 40.2113L271.229 25.7621L269.36 25.0504L263.858 39.4996L265.728 40.2113ZM270.295 26.4062H273.037V24.4062H270.295V26.4062ZM272.037 25.4062V51H274.037V25.4062H272.037ZM273.037 50H270.998V52H273.037V50ZM271.998 51V39.6621H269.998V51H271.998ZM271.998 39.6746L272.139 28.407L270.139 28.3821L269.998 39.6496L271.998 39.6746ZM270.204 28.0386L264.526 42.9448L266.395 43.6567L272.073 28.7505L270.204 28.0386ZM265.461 42.3008H264.09V44.3008H265.461V42.3008ZM265.031 42.9639L259.793 28.3214L257.91 28.995L263.148 43.6376L265.031 42.9639ZM257.852 28.671L257.992 39.6749L259.992 39.6493L259.851 28.6454L257.852 28.671ZM257.992 39.6621V51H259.992V39.6621H257.992ZM258.992 50H256.936V52H258.992V50ZM257.936 51V25.4062H255.936V51H257.936ZM256.936 26.4062H259.643V24.4062H256.936V26.4062ZM289.212 51L288.255 51.2922L288.472 52H289.212V51ZM288.913 49.6465L287.92 49.7675L287.922 49.7794L287.924 49.7913L288.913 49.6465ZM288.79 48.1875L289.789 48.1399L289.657 45.382L287.992 47.5844L288.79 48.1875ZM287.507 49.5059L288.134 50.2849L288.136 50.2831L287.507 49.5059ZM285.925 50.4902L285.5 49.585L285.492 49.5887L285.925 50.4902ZM284.061 51.123L283.852 50.1452L283.842 50.1474L283.831 50.1499L284.061 51.123ZM276.222 48.1875L275.324 48.6284L275.327 48.6347L276.222 48.1875ZM276.45 43.1777L275.61 42.635L275.604 42.6442L276.45 43.1777ZM278.419 41.2969L277.917 40.4317L277.911 40.4355L277.904 40.4394L278.419 41.2969ZM281.249 40.2773L281.441 41.2588L281.451 41.2567L281.249 40.2773ZM284.641 39.9258V38.9257L284.632 38.9258L284.641 39.9258ZM288.772 39.9258V40.9258H289.772V39.9258H288.772ZM288.772 37.7812H289.772V37.7731L289.772 37.7649L288.772 37.7812ZM288.35 35.9004L287.452 36.34L287.456 36.3476L288.35 35.9004ZM285.573 33.7031L285.273 34.657L285.283 34.6603L285.294 34.6633L285.573 33.7031ZM279.913 34.4238L279.349 33.598L279.34 33.6046L279.913 34.4238ZM278.753 35.6367L277.908 35.1012L277.905 35.1067L278.753 35.6367ZM278.296 37.2363L278.287 38.2363L279.276 38.2445L279.296 37.2559L278.296 37.2363ZM276.186 37.2188L275.187 37.1753L275.142 38.2101L276.178 38.2187L276.186 37.2188ZM278.436 33.2109L277.843 32.4058L277.834 32.4126L278.436 33.2109ZM280.757 32.0508L280.456 31.0972L280.452 31.0984L280.757 32.0508ZM288.737 33.1582L289.37 32.3842L289.358 32.3745L289.346 32.3651L288.737 33.1582ZM290.266 35.1094L289.367 35.5457L289.372 35.5566L290.266 35.1094ZM290.864 37.8164L291.864 37.8164L291.864 37.805L290.864 37.8164ZM291.022 48.9434L290.035 49.1048L290.037 49.1136L290.038 49.1222L291.022 48.9434ZM291.444 50.7891L292.441 50.706L292.433 50.6111L292.407 50.5194L291.444 50.7891ZM291.462 51V52H292.549L292.458 50.917L291.462 51ZM282.268 49.4707L282.284 48.4708L282.276 48.4707H282.268V49.4707ZM284.378 49.2246L284.632 50.1917L284.64 50.1896L284.648 50.1874L284.378 49.2246ZM288.772 45.7441L289.674 46.1763L289.772 45.9714V45.7441H288.772ZM288.772 41.5605H289.772V40.5605H288.772V41.5605ZM284.94 41.5605V40.5605L284.929 40.5606L284.94 41.5605ZM279.561 42.7031L280.095 43.5491L280.095 43.5486L279.561 42.7031ZM278.278 43.9688L277.431 43.437L277.428 43.4424L278.278 43.9688ZM279.122 48.4688L279.758 47.6968L279.751 47.6912L279.744 47.6856L279.122 48.4688ZM280.528 49.2246L280.218 50.1753L280.23 50.1793L280.243 50.183L280.528 49.2246ZM290.168 50.7078C290.055 50.3387 289.966 49.9372 289.902 49.5017L287.924 49.7913C288 50.3167 288.11 50.8176 288.255 51.2922L290.168 50.7078ZM289.906 49.5254C289.85 49.0698 289.811 48.608 289.789 48.1399L287.791 48.2351C287.816 48.7514 287.859 49.2622 287.92 49.7675L289.906 49.5254ZM287.992 47.5844C287.68 47.997 287.31 48.3786 286.878 48.7286L288.136 50.2831C288.688 49.8363 289.173 49.339 289.588 48.7906L287.992 47.5844ZM286.88 48.7268C286.463 49.0622 286.004 49.3484 285.5 49.585L286.35 51.3955C286.994 51.093 287.589 50.723 288.134 50.2849L286.88 48.7268ZM285.492 49.5887C284.979 49.8347 284.433 50.0206 283.852 50.1452L284.271 52.1008C285.002 51.9442 285.698 51.7082 286.357 51.3918L285.492 49.5887ZM283.831 50.1499C283.267 50.2833 282.67 50.3516 282.04 50.3516V52.3516C282.816 52.3516 283.567 52.2675 284.291 52.0962L283.831 50.1499ZM282.04 50.3516C281.26 50.3516 280.541 50.2374 279.878 50.0162L279.245 51.9135C280.128 52.2079 281.062 52.3516 282.04 52.3516V50.3516ZM279.878 50.0162C279.209 49.7933 278.654 49.4871 278.198 49.1068L276.917 50.6432C277.586 51.2004 278.367 51.6207 279.245 51.9135L279.878 50.0162ZM278.198 49.1068C277.741 48.7265 277.383 48.2734 277.116 47.7403L275.327 48.6347C275.717 49.4141 276.249 50.086 276.917 50.6432L278.198 49.1068ZM277.119 47.7466C276.865 47.2294 276.729 46.6384 276.729 45.9551H274.729C274.729 46.9124 274.922 47.8097 275.324 48.6284L277.119 47.7466ZM276.729 45.9551C276.729 45.0141 276.936 44.2825 277.296 43.7112L275.604 42.6442C275.004 43.5964 274.729 44.7163 274.729 45.9551H276.729ZM277.29 43.7204C277.695 43.0942 278.237 42.5723 278.933 42.1544L277.904 40.4394C276.96 41.0058 276.19 41.7378 275.61 42.635L277.29 43.7204ZM278.92 42.162C279.618 41.7577 280.453 41.452 281.441 41.2587L281.057 39.296C279.889 39.5245 278.837 39.8985 277.917 40.4317L278.92 42.162ZM281.451 41.2567C282.461 41.048 283.528 40.9369 284.651 40.9257L284.632 38.9258C283.388 38.9381 282.193 39.0613 281.047 39.298L281.451 41.2567ZM284.641 40.9258H288.772V38.9258H284.641V40.9258ZM289.772 39.9258V37.7812H287.772V39.9258H289.772ZM289.772 37.7649C289.758 36.9279 289.593 36.1488 289.245 35.4532L287.456 36.3476C287.647 36.7301 287.763 37.2049 287.772 37.7976L289.772 37.7649ZM289.249 35.4608C288.914 34.7776 288.449 34.199 287.856 33.7389L286.63 35.3197C286.974 35.5862 287.248 35.9216 287.452 36.3399L289.249 35.4608ZM287.856 33.7389C287.275 33.2891 286.602 32.961 285.852 32.7429L285.294 34.6633C285.833 34.8203 286.273 35.043 286.63 35.3197L287.856 33.7389ZM285.873 32.7493C285.133 32.5162 284.345 32.4043 283.516 32.4043V34.4043C284.164 34.4043 284.747 34.4916 285.273 34.657L285.873 32.7493ZM283.516 32.4043C282.75 32.4043 282.007 32.5036 281.293 32.7058L281.838 34.6302C282.366 34.4808 282.924 34.4043 283.516 34.4043V32.4043ZM281.293 32.7058C280.579 32.9078 279.928 33.2027 279.349 33.598L280.477 35.2496C280.859 34.9887 281.309 34.7797 281.838 34.6302L281.293 32.7058ZM279.34 33.6046C278.763 34.008 278.284 34.5085 277.908 35.1012L279.597 36.1723C279.831 35.804 280.125 35.4959 280.486 35.2431L279.34 33.6046ZM277.905 35.1067C277.508 35.7412 277.311 36.4536 277.296 37.2167L279.296 37.2559C279.304 36.8238 279.411 36.4698 279.601 36.1667L277.905 35.1067ZM278.304 36.2364L276.195 36.2188L276.178 38.2187L278.287 38.2363L278.304 36.2364ZM277.185 37.2622C277.214 36.6119 277.386 36.0271 277.699 35.492L275.974 34.4806C275.491 35.3049 275.229 36.2084 275.187 37.1753L277.185 37.2622ZM277.699 35.492C278.027 34.933 278.469 34.4387 279.039 34.0093L277.834 32.4126C277.068 32.9909 276.443 33.6802 275.974 34.4806L277.699 35.492ZM279.03 34.016C279.601 33.5951 280.275 33.255 281.061 33.0032L280.452 31.0984C279.481 31.409 278.608 31.8424 277.843 32.4059L279.03 34.016ZM281.058 33.0044C281.844 32.7562 282.691 32.6289 283.604 32.6289V30.6289C282.502 30.6289 281.451 30.7828 280.456 31.0972L281.058 33.0044ZM283.604 32.6289C284.526 32.6289 285.374 32.7467 286.153 32.9752L286.716 31.0561C285.737 30.7689 284.698 30.6289 283.604 30.6289V32.6289ZM286.153 32.9752C286.926 33.202 287.58 33.5303 288.128 33.9514L289.346 32.3651C288.582 31.7783 287.701 31.3449 286.716 31.0561L286.153 32.9752ZM288.104 33.9322C288.633 34.3646 289.053 34.8985 289.367 35.5456L291.166 34.6731C290.73 33.7734 290.131 33.0065 289.37 32.3842L288.104 33.9322ZM289.372 35.5566C289.679 36.171 289.854 36.9191 289.864 37.8278L291.864 37.805C291.851 36.6513 291.627 35.5947 291.161 34.6622L289.372 35.5566ZM289.864 37.8164V47.0098H291.864V37.8164H289.864ZM289.864 47.0098C289.864 47.7091 289.921 48.4076 290.035 49.1048L292.009 48.7819C291.912 48.19 291.864 47.5995 291.864 47.0098H289.864ZM290.038 49.1222C290.161 49.795 290.308 50.4407 290.481 51.0587L292.407 50.5194C292.252 49.9656 292.118 49.3807 292.006 48.7645L290.038 49.1222ZM290.448 50.8721L290.465 51.083L292.458 50.917L292.441 50.706L290.448 50.8721ZM291.462 50H289.212V52H291.462V50ZM282.253 50.4706C283.076 50.4836 283.87 50.3922 284.632 50.1917L284.123 48.2575C283.549 48.4086 282.938 48.4812 282.284 48.4708L282.253 50.4706ZM284.648 50.1874C285.392 49.9784 286.087 49.6886 286.727 49.315L285.72 47.5874C285.235 47.87 284.699 48.0958 284.108 48.2618L284.648 50.1874ZM286.727 49.315C287.369 48.9407 287.942 48.4897 288.443 47.9617L286.992 46.5852C286.626 46.9712 286.203 47.3054 285.72 47.5874L286.727 49.315ZM288.443 47.9617C288.948 47.4298 289.359 46.8338 289.674 46.1763L287.871 45.312C287.647 45.7795 287.355 46.203 286.992 46.5852L288.443 47.9617ZM289.772 45.7441V41.5605H287.772V45.7441H289.772ZM288.772 40.5605H284.94V42.5605H288.772V40.5605ZM284.929 40.5606C283.837 40.5729 282.793 40.665 281.797 40.8392L282.142 42.8092C283.021 42.6553 283.958 42.5717 284.952 42.5605L284.929 40.5606ZM281.797 40.8392C280.757 41.0212 279.826 41.3534 279.027 41.8576L280.095 43.5486C280.633 43.2091 281.307 42.9553 282.142 42.8092L281.797 40.8392ZM279.028 41.8572C278.371 42.2712 277.833 42.7973 277.431 43.437L279.125 44.5005C279.356 44.1324 279.673 43.8148 280.095 43.5491L279.028 41.8572ZM277.428 43.4424C277.006 44.1236 276.821 44.9127 276.821 45.7617H278.821C278.821 45.2045 278.941 44.7983 279.128 44.4951L277.428 43.4424ZM276.821 45.7617C276.821 46.4757 276.968 47.1507 277.283 47.7649L279.063 46.8523C278.909 46.5524 278.821 46.1962 278.821 45.7617H276.821ZM277.283 47.7649C277.582 48.3475 277.989 48.846 278.5 49.2519L279.744 47.6856C279.458 47.4587 279.233 47.1838 279.063 46.8523L277.283 47.7649ZM278.486 49.2407C278.99 49.6557 279.572 49.9646 280.218 50.1753L280.838 48.2739C280.406 48.133 280.051 47.938 279.758 47.6968L278.486 49.2407ZM280.243 50.183C280.892 50.3763 281.568 50.4707 282.268 50.4707V48.4707C281.75 48.4707 281.266 48.4011 280.814 48.2662L280.243 50.183ZM294.875 51H293.875V52H294.875V51ZM294.875 31.9805V30.9805H293.875V31.9805H294.875ZM296.808 31.9805L297.808 31.9472L297.776 30.9805H296.808V31.9805ZM296.931 35.6719L295.932 35.7052L296.057 39.4458L297.814 36.1415L296.931 35.6719ZM299.304 32.9297L299.873 33.7526L299.875 33.7513L299.304 32.9297ZM301.203 31.9805L300.887 31.0318L300.882 31.0334L301.203 31.9805ZM306.195 32.1035L305.826 33.0329L305.831 33.0348L306.195 32.1035ZM308.217 33.4922L307.468 34.1548L307.468 34.1557L308.217 33.4922ZM309.886 51V52H310.886V51H309.886ZM307.795 51H306.795V52H307.795V51ZM307.795 38.8359H308.795L308.795 38.8224L307.795 38.8359ZM307.478 36.5332L306.515 36.8035L306.518 36.8113L306.52 36.819L307.478 36.5332ZM306.599 34.8457L307.353 34.1886L307.348 34.1831L307.344 34.1778L306.599 34.8457ZM305.07 33.8086L304.705 34.7396L304.711 34.7419L305.07 33.8086ZM302.926 33.4746V34.4747L302.94 34.4745L302.926 33.4746ZM300.869 33.8613L301.226 34.7955L301.233 34.7927L301.24 34.7898L300.869 33.8613ZM299.111 34.8633L298.486 34.0824L298.482 34.086L299.111 34.8633ZM297.828 36.2871L298.657 36.846L298.663 36.8377L297.828 36.2871ZM296.984 38.0098L296.034 37.699L295.984 37.8505V38.0098H296.984ZM296.984 51V52H297.984V51H296.984ZM295.875 51V31.9805H293.875V51H295.875ZM294.875 32.9805H296.808V30.9805H294.875V32.9805ZM295.809 32.0138L295.932 35.7052L297.931 35.6386L297.808 31.9472L295.809 32.0138ZM297.814 36.1415C298.074 35.6533 298.379 35.2034 298.73 34.7902L297.207 33.4949C296.761 34.0193 296.375 34.5889 296.049 35.2023L297.814 36.1415ZM298.73 34.7902C299.074 34.3862 299.454 34.0413 299.873 33.7526L298.736 32.1068C298.17 32.4977 297.66 32.9615 297.207 33.4949L298.73 34.7902ZM299.875 33.7513C300.369 33.4084 300.917 33.1333 301.524 32.9275L300.882 31.0334C300.106 31.2964 299.389 31.6541 298.734 32.1081L299.875 33.7513ZM301.519 32.9292C302.114 32.7307 302.751 32.6289 303.435 32.6289V30.6289C302.549 30.6289 301.698 30.7615 300.887 31.0318L301.519 32.9292ZM303.435 32.6289C304.379 32.6289 305.169 32.7721 305.826 33.0329L306.564 31.1741C305.627 30.8022 304.578 30.6289 303.435 30.6289V32.6289ZM305.831 33.0348C306.502 33.2974 307.041 33.6721 307.468 34.1548L308.966 32.8296C308.314 32.0935 307.506 31.5425 306.559 31.1723L305.831 33.0348ZM307.468 34.1557C307.915 34.6593 308.267 35.2874 308.511 36.0609L310.418 35.4586C310.1 34.4509 309.62 33.5672 308.965 32.8287L307.468 34.1557ZM308.511 36.0609C308.756 36.8356 308.886 37.7449 308.886 38.8008H310.886C310.886 37.5833 310.736 36.4651 310.418 35.4586L308.511 36.0609ZM308.886 38.8008V51H310.886V38.8008H308.886ZM309.886 50H307.795V52H309.886V50ZM308.795 51V38.8359H306.795V51H308.795ZM308.795 38.8224C308.782 37.8845 308.668 37.0222 308.437 36.2474L306.52 36.819C306.687 37.3801 306.784 38.053 306.795 38.8494L308.795 38.8224ZM308.441 36.2629C308.219 35.4727 307.862 34.7725 307.353 34.1886L305.846 35.5028C306.133 35.8329 306.362 36.2577 306.515 36.8035L308.441 36.2629ZM307.344 34.1778C306.821 33.5957 306.176 33.1627 305.429 32.8752L304.711 34.7419C305.182 34.9232 305.557 35.1817 305.855 35.5136L307.344 34.1778ZM305.435 32.8776C304.687 32.5842 303.837 32.4617 302.911 32.4747L302.94 34.4745C303.679 34.4641 304.258 34.5643 304.705 34.7396L305.435 32.8776ZM302.926 32.4746C302.078 32.4746 301.266 32.6256 300.498 32.9329L301.24 34.7898C301.761 34.5814 302.32 34.4746 302.926 34.4746V32.4746ZM300.512 32.9271C299.773 33.2093 299.096 33.5945 298.486 34.0824L299.736 35.6442C300.181 35.2884 300.676 35.0055 301.226 34.7955L300.512 32.9271ZM298.482 34.086C297.907 34.5517 297.411 35.1037 296.993 35.7365L298.663 36.8377C298.972 36.369 299.331 35.9717 299.74 35.6405L298.482 34.086ZM296.999 35.7283C296.584 36.3429 296.262 37.0005 296.034 37.699L297.935 38.3205C298.105 37.8003 298.345 37.3094 298.657 36.846L296.999 35.7283ZM295.984 38.0098V51H297.984V38.0098H295.984ZM296.984 50H294.875V52H296.984V50ZM313.458 37.7109L312.493 37.4478L312.491 37.4545L313.458 37.7109ZM314.829 34.6523L315.656 35.2147L315.656 35.2144L314.829 34.6523ZM323.811 32.4199L323.335 33.2991L323.343 33.3035L323.811 32.4199ZM326.202 34.5645L325.375 35.1265L327.202 37.8154V34.5645H326.202ZM326.202 24V23H325.202V24H326.202ZM328.294 24H329.294V23H328.294V24ZM328.294 51V52H329.294V51H328.294ZM326.342 51L325.343 51.029L325.371 52H326.342V51ZM326.272 48.5742L327.272 48.5452L327.187 45.6163L325.463 47.986L326.272 48.5742ZM323.776 50.6484L324.198 51.5552L324.206 51.5511L323.776 50.6484ZM317.219 50.5254L316.713 51.3876L316.717 51.3903L317.219 50.5254ZM314.864 48.3457L314.039 48.9104L314.045 48.9199L314.864 48.3457ZM315.409 44.4961L314.431 44.7065L314.433 44.7137L314.434 44.721L315.409 44.4961ZM316.393 46.9922L315.533 47.5027L315.541 47.5156L315.549 47.5282L316.393 46.9922ZM318.186 48.8027L317.644 49.6431L317.65 49.6469L318.186 48.8027ZM326.202 46.2012L327.116 46.6063L327.202 46.4128V46.2012H326.202ZM326.202 37.0781H327.202V36.8846L327.13 36.705L326.202 37.0781ZM324.163 34.4766L323.573 35.284L323.579 35.2882L323.584 35.2924L324.163 34.4766ZM318.186 34.1777L317.656 33.3297L317.65 33.3335L318.186 34.1777ZM316.393 36.0059L315.539 35.4855L315.533 35.4953L316.393 36.0059ZM315.409 38.5195L314.434 38.2974L314.431 38.3092L315.409 38.5195ZM314.001 41.3145C314.001 40.1423 314.143 39.0276 314.424 37.9674L312.491 37.4545C312.163 38.6911 312.001 39.9788 312.001 41.3145H314.001ZM314.422 37.9741C314.714 36.9067 315.128 35.991 315.656 35.2147L314.002 34.09C313.334 35.0715 312.835 36.1948 312.493 37.4478L314.422 37.9741ZM315.656 35.2144C316.193 34.4235 316.868 33.795 317.686 33.32L316.682 31.5901C315.602 32.2168 314.706 33.0531 314.002 34.0903L315.656 35.2144ZM317.686 33.32C318.457 32.8728 319.402 32.6289 320.559 32.6289V30.6289C319.115 30.6289 317.81 30.9358 316.682 31.5901L317.686 33.32ZM320.559 32.6289C321.602 32.6289 322.52 32.8573 323.335 33.299L324.288 31.5408C323.157 30.9278 321.907 30.6289 320.559 30.6289V32.6289ZM323.343 33.3035C324.171 33.7424 324.845 34.3467 325.375 35.1265L327.029 34.0024C326.317 32.9541 325.397 32.1287 324.28 31.5364L323.343 33.3035ZM327.202 34.5645V24H325.202V34.5645H327.202ZM326.202 25H328.294V23H326.202V25ZM327.294 24V51H329.294V24H327.294ZM328.294 50H326.342V52H328.294V50ZM327.342 50.971L327.272 48.5452L325.273 48.6032L325.343 51.029L327.342 50.971ZM325.463 47.986C324.905 48.7536 324.203 49.3369 323.346 49.7458L324.206 51.5511C325.364 50.999 326.327 50.1995 327.081 49.1624L325.463 47.986ZM323.354 49.7417C322.484 50.1463 321.545 50.3516 320.524 50.3516V52.3516C321.823 52.3516 323.052 52.0881 324.198 51.5552L323.354 49.7417ZM320.524 50.3516C319.421 50.3516 318.497 50.1108 317.721 49.6605L316.717 51.3903C317.84 52.0416 319.119 52.3516 320.524 52.3516V50.3516ZM317.726 49.6632C316.914 49.186 316.234 48.5583 315.683 47.7715L314.045 48.9199C314.759 49.9378 315.65 50.7633 316.713 51.3876L317.726 49.6632ZM315.689 47.781C315.15 46.9923 314.73 46.0712 314.44 45.0064L312.51 45.5326C312.853 46.7882 313.359 47.9178 314.039 48.9104L315.689 47.781ZM314.44 45.0064C314.148 43.934 314.001 42.8273 314.001 41.6836H312.001C312.001 43.0009 312.17 44.2848 312.51 45.5326L314.44 45.0064ZM314.001 41.6836V41.3145H312.001V41.6836H314.001ZM314.11 41.6836C314.11 42.7034 314.217 43.7114 314.431 44.7065L316.386 44.2857C316.202 43.4292 316.11 42.5623 316.11 41.6836H314.11ZM314.434 44.721C314.667 45.728 315.032 46.6575 315.533 47.5027L317.253 46.4816C316.864 45.8268 316.573 45.0923 316.383 44.2712L314.434 44.721ZM315.549 47.5282C316.094 48.3871 316.795 49.095 317.644 49.643L318.728 47.9624C318.125 47.573 317.63 47.0738 317.237 46.4562L315.549 47.5282ZM317.65 49.6469C318.582 50.2388 319.687 50.5059 320.911 50.5059V48.5059C319.978 48.5059 319.267 48.3041 318.722 47.9585L317.65 49.6469ZM320.911 50.5059C322.258 50.5059 323.502 50.1663 324.618 49.4779L323.567 47.776C322.784 48.2595 321.907 48.5059 320.911 48.5059V50.5059ZM324.618 49.4779C325.741 48.7847 326.578 47.8198 327.116 46.6063L325.288 45.796C324.911 46.645 324.343 47.2973 323.567 47.776L324.618 49.4779ZM327.202 46.2012V37.0781H325.202V46.2012H327.202ZM327.13 36.705C326.626 35.4534 325.827 34.4308 324.741 33.6607L323.584 35.2924C324.35 35.8349 324.91 36.5466 325.274 37.4513L327.13 36.705ZM324.753 33.6692C323.652 32.865 322.369 32.4746 320.946 32.4746V34.4746C321.984 34.4746 322.845 34.7522 323.573 35.284L324.753 33.6692ZM320.946 32.4746C319.712 32.4746 318.598 32.7409 317.656 33.3297L318.716 35.0257C319.274 34.6771 320 34.4746 320.946 34.4746V32.4746ZM317.65 33.3335C316.782 33.8848 316.076 34.6052 315.539 35.4855L317.247 36.5262C317.625 35.9065 318.114 35.4082 318.722 35.0219L317.65 33.3335ZM315.533 35.4953C315.03 36.3424 314.666 37.279 314.434 38.2974L316.384 38.7417C316.574 37.9085 316.865 37.1693 317.253 36.5164L315.533 35.4953ZM314.431 38.3092C314.217 39.3034 314.11 40.3055 314.11 41.3145H316.11C316.11 40.4484 316.202 39.5873 316.386 38.7299L314.431 38.3092ZM314.11 41.3145V41.6836H316.11V41.3145H314.11ZM344.943 31.6289L344.936 32.6289H344.943V31.6289ZM346.507 31.7344L346.375 32.7256L346.387 32.7272L346.399 32.7285L346.507 31.7344ZM347.861 31.998L348.851 32.1347L348.966 31.3038L348.168 31.0463L347.861 31.998ZM347.58 34.0371L347.365 35.0139L348.422 35.2459L348.57 34.1737L347.58 34.0371ZM342.095 34.0195L342.345 34.988L342.355 34.9853L342.095 34.0195ZM340.003 34.9688L339.431 34.1488L339.427 34.1518L340.003 34.9688ZM338.439 36.5684L337.616 35.9999L337.614 36.0031L338.439 36.5684ZM337.437 38.8359L336.471 38.5783L336.437 38.7056L336.437 38.8374L337.437 38.8359ZM337.455 51V52H338.456L338.455 50.9986L337.455 51ZM335.292 51H334.292V52H335.292V51ZM335.292 31.9805V30.9805H334.292V31.9805H335.292ZM337.296 31.9805L338.296 31.9386L338.255 30.9805H337.296V31.9805ZM337.419 34.916H338.419V34.8951L338.419 34.8741L337.419 34.916ZM337.419 35.7598H336.419V39.5476L338.289 36.2534L337.419 35.7598ZM340.443 32.7188L340.937 33.588L340.943 33.5845L340.443 32.7188ZM344.943 32.6289C345.413 32.6289 345.89 32.6609 346.375 32.7256L346.64 30.7431C346.07 30.6672 345.504 30.6289 344.943 30.6289V32.6289ZM346.399 32.7285C346.896 32.7826 347.276 32.8601 347.554 32.9498L348.168 31.0463C347.719 30.9016 347.196 30.8034 346.615 30.7402L346.399 32.7285ZM346.87 31.8614L346.589 33.9005L348.57 34.1737L348.851 32.1347L346.87 31.8614ZM347.794 33.0604C347.282 32.9479 346.763 32.8604 346.239 32.798L346.002 34.784C346.463 34.8388 346.917 34.9154 347.365 35.0139L347.794 33.0604ZM346.239 32.798C345.706 32.7346 345.162 32.7031 344.609 32.7031V34.7031C345.087 34.7031 345.551 34.7303 346.002 34.784L346.239 32.798ZM344.609 32.7031C343.639 32.7031 342.713 32.8181 341.836 33.0538L342.355 34.9853C343.048 34.7991 343.798 34.7031 344.609 34.7031V32.7031ZM341.846 33.0511C340.963 33.2785 340.155 33.6432 339.431 34.1488L340.576 35.7887C341.094 35.4271 341.681 35.159 342.345 34.9879L341.846 33.0511ZM339.427 34.1518C338.727 34.6461 338.124 35.2656 337.616 35.9999L339.262 37.1368C339.645 36.582 340.085 36.1352 340.58 35.7857L339.427 34.1518ZM337.614 36.0031C337.106 36.7453 336.729 37.6094 336.471 38.5783L338.403 39.0936C338.614 38.3046 338.905 37.6571 339.264 37.1336L337.614 36.0031ZM336.437 38.8374L336.455 51.0014L338.455 50.9986L338.437 38.8345L336.437 38.8374ZM337.455 50H335.292V52H337.455V50ZM336.292 51V31.9805H334.292V51H336.292ZM335.292 32.9805H337.296V30.9805H335.292V32.9805ZM336.297 32.0223L336.42 34.9579L338.419 34.8741L338.296 31.9386L336.297 32.0223ZM336.419 34.916V35.7598H338.419V34.916H336.419ZM338.289 36.2534C338.94 35.1064 339.82 34.2238 340.937 33.588L339.948 31.8495C338.512 32.6668 337.375 33.8116 336.55 35.2662L338.289 36.2534ZM340.943 33.5845C342.042 32.9493 343.361 32.6182 344.936 32.6289L344.95 30.6289C343.079 30.6162 341.398 31.0116 339.942 31.853L340.943 33.5845ZM351.59 31.9805V30.9805H350.59V31.9805H351.59ZM360.414 31.9805H361.414V30.9805H360.414V31.9805ZM360.414 49.1191H359.414V50.1191H360.414V49.1191ZM366.883 49.1191H367.883V48.1191H366.883V49.1191ZM366.883 51V52H367.883V51H366.883ZM351.59 51H350.59V52H351.59V51ZM351.59 49.1191V48.1191H350.59V49.1191H351.59ZM358.323 49.1191V50.1191H359.323V49.1191H358.323ZM358.323 33.8613H359.323V32.8613H358.323V33.8613ZM351.59 33.8613H350.59V34.8613H351.59V33.8613ZM358.094 25.6172L358.829 26.2955L358.831 26.2929L358.094 25.6172ZM358.586 25.3008L358.919 26.2438L358.943 26.2352L358.967 26.2255L358.586 25.3008ZM359.993 25.3008L359.612 26.2255L359.636 26.2352L359.66 26.2438L359.993 25.3008ZM360.467 25.6172L359.699 26.2574L359.728 26.2922L359.76 26.3243L360.467 25.6172ZM351.59 32.9805H360.414V30.9805H351.59V32.9805ZM359.414 31.9805V49.1191H361.414V31.9805H359.414ZM360.414 50.1191H366.883V48.1191H360.414V50.1191ZM365.883 49.1191V51H367.883V49.1191H365.883ZM366.883 50H351.59V52H366.883V50ZM352.59 51V49.1191H350.59V51H352.59ZM351.59 50.1191H358.323V48.1191H351.59V50.1191ZM359.323 49.1191V33.8613H357.323V49.1191H359.323ZM358.323 32.8613H351.59V34.8613H358.323V32.8613ZM352.59 33.8613V31.9805H350.59V33.8613H352.59ZM358.707 26.7773C358.707 26.6433 358.725 26.5279 358.755 26.4267L356.836 25.8624C356.749 26.1596 356.707 26.4661 356.707 26.7773H358.707ZM358.755 26.4267C358.77 26.3748 358.793 26.3346 358.829 26.2955L357.359 24.9389C357.114 25.2045 356.938 25.5158 356.836 25.8624L358.755 26.4267ZM358.831 26.2929C358.838 26.2858 358.858 26.2655 358.919 26.2438L358.254 24.3578C357.917 24.4767 357.608 24.6674 357.357 24.9415L358.831 26.2929ZM358.967 26.2255C359.019 26.2039 359.119 26.1777 359.289 26.1777V24.1777C358.921 24.1777 358.552 24.2336 358.206 24.3761L358.967 26.2255ZM359.289 26.1777C359.46 26.1777 359.56 26.2039 359.612 26.2255L360.373 24.3761C360.027 24.2336 359.658 24.1777 359.289 24.1777V26.1777ZM359.66 26.2438C359.69 26.2543 359.703 26.2628 359.706 26.2647C359.708 26.2661 359.704 26.2638 359.699 26.2574L361.235 24.977C360.986 24.6779 360.668 24.4786 360.325 24.3578L359.66 26.2438ZM359.76 26.3243C359.789 26.3528 359.817 26.3924 359.841 26.4598L361.727 25.7941C361.61 25.4631 361.427 25.1628 361.174 24.9101L359.76 26.3243ZM359.841 26.4598C359.869 26.541 359.889 26.644 359.889 26.7773H361.889C361.889 26.4419 361.839 26.1113 361.727 25.7941L359.841 26.4598ZM359.889 26.7773C359.889 26.9773 359.835 27.108 359.739 27.2212L361.266 28.5131C361.685 28.017 361.889 27.4211 361.889 26.7773H359.889ZM359.739 27.2212C359.736 27.2251 359.663 27.3242 359.289 27.3242V29.3242C360.017 29.3242 360.753 29.1186 361.266 28.5131L359.739 27.2212ZM359.289 27.3242C359.094 27.3242 358.978 27.2972 358.917 27.2742C358.888 27.2632 358.872 27.2537 358.866 27.2489C358.859 27.2445 358.857 27.2415 358.855 27.2389L357.299 28.4955C357.807 29.1245 358.562 29.3242 359.289 29.3242V27.3242ZM358.855 27.2389C358.764 27.1262 358.707 26.9894 358.707 26.7773H356.707C356.707 27.409 356.897 27.9988 357.299 28.4955L358.855 27.2389ZM370.331 24V23H369.331V24H370.331ZM379.191 24H380.191V23H379.191V24ZM379.191 49.1191H378.191V50.1191H379.191V49.1191ZM385.624 49.1191H386.624V48.1191H385.624V49.1191ZM385.624 51V52H386.624V51H385.624ZM370.331 51H369.331V52H370.331V51ZM370.331 49.1191V48.1191H369.331V49.1191H370.331ZM377.099 49.1191V50.1191H378.099V49.1191H377.099ZM377.099 25.8809H378.099V24.8809H377.099V25.8809ZM370.331 25.8809H369.331V26.8809H370.331V25.8809ZM370.331 25H379.191V23H370.331V25ZM378.191 24V49.1191H380.191V24H378.191ZM379.191 50.1191H385.624V48.1191H379.191V50.1191ZM384.624 49.1191V51H386.624V49.1191H384.624ZM385.624 50H370.331V52H385.624V50ZM371.331 51V49.1191H369.331V51H371.331ZM370.331 50.1191H377.099V48.1191H370.331V50.1191ZM378.099 49.1191V25.8809H376.099V49.1191H378.099ZM377.099 24.8809H370.331V26.8809H377.099V24.8809ZM371.331 25.8809V24H369.331V25.8809H371.331ZM389.072 24V23H388.072V24H389.072ZM397.932 24H398.932V23H397.932V24ZM397.932 49.1191H396.932V50.1191H397.932V49.1191ZM404.365 49.1191H405.365V48.1191H404.365V49.1191ZM404.365 51V52H405.365V51H404.365ZM389.072 51H388.072V52H389.072V51ZM389.072 49.1191V48.1191H388.072V49.1191H389.072ZM395.84 49.1191V50.1191H396.84V49.1191H395.84ZM395.84 25.8809H396.84V24.8809H395.84V25.8809ZM389.072 25.8809H388.072V26.8809H389.072V25.8809ZM389.072 25H397.932V23H389.072V25ZM396.932 24V49.1191H398.932V24H396.932ZM397.932 50.1191H404.365V48.1191H397.932V50.1191ZM403.365 49.1191V51H405.365V49.1191H403.365ZM404.365 50H389.072V52H404.365V50ZM390.072 51V49.1191H388.072V51H390.072ZM389.072 50.1191H395.84V48.1191H389.072V50.1191ZM396.84 49.1191V25.8809H394.84V49.1191H396.84ZM395.84 24.8809H389.072V26.8809H395.84V24.8809ZM390.072 25.8809V24H388.072V25.8809H390.072Z" fill="white" mask="url(#path-1-outside-1_630_49)"/>
<mask id="path-3-outside-2_630_49" maskUnits="userSpaceOnUse" x="106" y="23" width="141" height="30" fill="black">
<rect fill="white" x="106" y="23" width="141" height="30"/>
<path d="M112.594 47.0098H124.582V51H107.637V25.4062H112.594V47.0098ZM139.542 51C139.425 50.7656 139.326 50.4961 139.244 50.1914C139.162 49.8867 139.091 49.5645 139.033 49.2246C138.763 49.5176 138.453 49.793 138.101 50.0508C137.749 50.3086 137.363 50.5312 136.941 50.7188C136.507 50.918 136.033 51.0703 135.517 51.1758C135.001 51.293 134.445 51.3516 133.847 51.3516C132.874 51.3516 131.978 51.2109 131.158 50.9297C130.349 50.6484 129.652 50.2559 129.066 49.752C128.48 49.248 128.023 48.6504 127.695 47.959C127.367 47.2559 127.203 46.4941 127.203 45.6738C127.203 44.6191 127.408 43.6875 127.818 42.8789C128.228 42.0586 128.843 41.3848 129.664 40.8574C130.402 40.377 131.31 40.0137 132.388 39.7676C133.478 39.5098 134.726 39.3809 136.132 39.3809H138.857V38.2559C138.857 37.8105 138.787 37.4121 138.646 37.0605C138.505 36.6973 138.294 36.3867 138.013 36.1289C137.72 35.8594 137.351 35.6543 136.906 35.5137C136.472 35.3613 135.962 35.2852 135.376 35.2852C134.861 35.2852 134.415 35.3496 134.04 35.4785C133.665 35.5957 133.361 35.7656 133.126 35.9883C132.915 36.1875 132.757 36.4277 132.652 36.709C132.558 36.9902 132.511 37.3008 132.511 37.6406H127.624C127.624 36.832 127.8 36.0645 128.152 35.3379C128.515 34.6113 129.042 33.9727 129.734 33.4219C130.414 32.8711 131.246 32.4375 132.23 32.1211C133.226 31.793 134.363 31.6289 135.64 31.6289C136.789 31.6289 137.855 31.7695 138.839 32.0508C139.835 32.332 140.697 32.748 141.423 33.2988C142.15 33.8496 142.718 34.5469 143.128 35.3906C143.539 36.2227 143.744 37.1895 143.744 38.291V46.4473C143.744 47.4668 143.808 48.3105 143.937 48.9785C144.066 49.6465 144.253 50.2207 144.499 50.7012V51H139.542ZM134.884 47.5723C135.376 47.5723 135.833 47.5137 136.255 47.3965C136.677 47.2793 137.058 47.127 137.398 46.9395C137.738 46.752 138.031 46.541 138.277 46.3066C138.523 46.0605 138.716 45.8145 138.857 45.5684V42.2988H136.361C135.599 42.2988 134.949 42.375 134.41 42.5273C133.871 42.668 133.431 42.8672 133.091 43.125C132.751 43.3945 132.499 43.7168 132.335 44.0918C132.171 44.4551 132.089 44.8535 132.089 45.2871C132.089 45.627 132.148 45.9434 132.265 46.2363C132.394 46.5176 132.576 46.7578 132.81 46.957C133.044 47.1445 133.331 47.2969 133.671 47.4141C134.023 47.5195 134.427 47.5723 134.884 47.5723ZM161.499 31.6289C162.237 31.6289 162.917 31.6816 163.538 31.7871C164.171 31.8809 164.681 31.9863 165.067 32.1035L164.347 36.9727C163.702 36.8203 163.04 36.709 162.36 36.6387C161.692 36.5566 161.054 36.5156 160.444 36.5156C159.811 36.5156 159.237 36.5742 158.722 36.6914C158.218 36.7969 157.766 36.9609 157.368 37.1836C156.888 37.4414 156.477 37.7695 156.138 38.168C155.798 38.5664 155.516 39.0352 155.294 39.5742V51H150.407V31.9805H154.96L155.153 34.6699L155.188 35.0918C155.962 34.0137 156.888 33.1699 157.966 32.5605C159.044 31.9395 160.222 31.6289 161.499 31.6289ZM179.905 51C179.787 50.7656 179.688 50.4961 179.606 50.1914C179.524 49.8867 179.453 49.5645 179.395 49.2246C179.125 49.5176 178.815 49.793 178.463 50.0508C178.112 50.3086 177.725 50.5312 177.303 50.7188C176.869 50.918 176.395 51.0703 175.879 51.1758C175.364 51.293 174.807 51.3516 174.209 51.3516C173.237 51.3516 172.34 51.2109 171.52 50.9297C170.711 50.6484 170.014 50.2559 169.428 49.752C168.842 49.248 168.385 48.6504 168.057 47.959C167.729 47.2559 167.565 46.4941 167.565 45.6738C167.565 44.6191 167.77 43.6875 168.18 42.8789C168.59 42.0586 169.205 41.3848 170.026 40.8574C170.764 40.377 171.672 40.0137 172.75 39.7676C173.84 39.5098 175.088 39.3809 176.494 39.3809H179.219V38.2559C179.219 37.8105 179.149 37.4121 179.008 37.0605C178.868 36.6973 178.657 36.3867 178.375 36.1289C178.082 35.8594 177.713 35.6543 177.268 35.5137C176.834 35.3613 176.325 35.2852 175.739 35.2852C175.223 35.2852 174.778 35.3496 174.403 35.4785C174.028 35.5957 173.723 35.7656 173.489 35.9883C173.278 36.1875 173.119 36.4277 173.014 36.709C172.92 36.9902 172.873 37.3008 172.873 37.6406H167.987C167.987 36.832 168.162 36.0645 168.514 35.3379C168.877 34.6113 169.405 33.9727 170.096 33.4219C170.776 32.8711 171.608 32.4375 172.592 32.1211C173.588 31.793 174.725 31.6289 176.002 31.6289C177.151 31.6289 178.217 31.7695 179.201 32.0508C180.198 32.332 181.059 32.748 181.785 33.2988C182.512 33.8496 183.08 34.5469 183.491 35.3906C183.901 36.2227 184.106 37.1895 184.106 38.291V46.4473C184.106 47.4668 184.17 48.3105 184.299 48.9785C184.428 49.6465 184.616 50.2207 184.862 50.7012V51H179.905ZM175.246 47.5723C175.739 47.5723 176.196 47.5137 176.618 47.3965C177.039 47.2793 177.42 47.127 177.76 46.9395C178.1 46.752 178.393 46.541 178.639 46.3066C178.885 46.0605 179.078 45.8145 179.219 45.5684V42.2988H176.723C175.961 42.2988 175.311 42.375 174.772 42.5273C174.233 42.668 173.793 42.8672 173.453 43.125C173.114 43.3945 172.862 43.7168 172.698 44.0918C172.534 44.4551 172.451 44.8535 172.451 45.2871C172.451 45.627 172.51 45.9434 172.627 46.2363C172.756 46.5176 172.938 46.7578 173.172 46.957C173.407 47.1445 173.694 47.2969 174.034 47.4141C174.385 47.5195 174.789 47.5723 175.246 47.5723ZM194.25 51L186.99 31.9805H192.088L196.271 45.3926L196.535 46.7285L196.799 45.3926L200.965 31.9805H206.062L198.838 51H194.25ZM217.613 51.3516C216.148 51.3516 214.818 51.1113 213.622 50.6309C212.427 50.1504 211.402 49.4941 210.546 48.6621C209.691 47.8418 209.029 46.875 208.56 45.7617C208.103 44.6367 207.874 43.4355 207.874 42.1582V41.4551C207.874 40.002 208.103 38.6777 208.56 37.4824C209.017 36.2754 209.655 35.2383 210.476 34.3711C211.296 33.5039 212.269 32.8301 213.394 32.3496C214.519 31.8691 215.743 31.6289 217.068 31.6289C218.439 31.6289 219.657 31.8574 220.724 32.3145C221.802 32.7598 222.716 33.3926 223.466 34.2129C224.204 35.0332 224.767 36.0234 225.154 37.1836C225.54 38.332 225.734 39.6035 225.734 40.998V43.0723H212.831V43.125C212.995 43.8867 213.206 44.502 213.464 44.9707C213.722 45.4277 214.068 45.8438 214.501 46.2188C214.946 46.6055 215.456 46.9043 216.03 47.1152C216.605 47.3262 217.232 47.4316 217.911 47.4316C218.872 47.4316 219.804 47.25 220.706 46.8867C221.609 46.5234 222.341 45.9785 222.904 45.252L225.347 47.8887C224.726 48.7676 223.741 49.5645 222.394 50.2793C221.046 50.9941 219.452 51.3516 217.613 51.3516ZM217.032 35.584C216.482 35.584 215.978 35.6836 215.521 35.8828C215.064 36.0703 214.665 36.3457 214.325 36.709C213.974 37.0723 213.681 37.5059 213.446 38.0098C213.212 38.5137 213.036 39.0762 212.919 39.6973H220.935V39.3105C220.935 38.7949 220.841 38.3086 220.654 37.8516C220.466 37.3945 220.208 36.9961 219.88 36.6562C219.552 36.3281 219.148 36.0703 218.667 35.8828C218.198 35.6836 217.654 35.584 217.032 35.584ZM229.585 24H240.219V47.0273H245.669V51H229.585V47.0273H235.28V27.9902H229.585V24Z"/>
</mask>
<path d="M112.594 47.0098H124.582V51H107.637V25.4062H112.594V47.0098ZM139.542 51C139.425 50.7656 139.326 50.4961 139.244 50.1914C139.162 49.8867 139.091 49.5645 139.033 49.2246C138.763 49.5176 138.453 49.793 138.101 50.0508C137.749 50.3086 137.363 50.5312 136.941 50.7188C136.507 50.918 136.033 51.0703 135.517 51.1758C135.001 51.293 134.445 51.3516 133.847 51.3516C132.874 51.3516 131.978 51.2109 131.158 50.9297C130.349 50.6484 129.652 50.2559 129.066 49.752C128.48 49.248 128.023 48.6504 127.695 47.959C127.367 47.2559 127.203 46.4941 127.203 45.6738C127.203 44.6191 127.408 43.6875 127.818 42.8789C128.228 42.0586 128.843 41.3848 129.664 40.8574C130.402 40.377 131.31 40.0137 132.388 39.7676C133.478 39.5098 134.726 39.3809 136.132 39.3809H138.857V38.2559C138.857 37.8105 138.787 37.4121 138.646 37.0605C138.505 36.6973 138.294 36.3867 138.013 36.1289C137.72 35.8594 137.351 35.6543 136.906 35.5137C136.472 35.3613 135.962 35.2852 135.376 35.2852C134.861 35.2852 134.415 35.3496 134.04 35.4785C133.665 35.5957 133.361 35.7656 133.126 35.9883C132.915 36.1875 132.757 36.4277 132.652 36.709C132.558 36.9902 132.511 37.3008 132.511 37.6406H127.624C127.624 36.832 127.8 36.0645 128.152 35.3379C128.515 34.6113 129.042 33.9727 129.734 33.4219C130.414 32.8711 131.246 32.4375 132.23 32.1211C133.226 31.793 134.363 31.6289 135.64 31.6289C136.789 31.6289 137.855 31.7695 138.839 32.0508C139.835 32.332 140.697 32.748 141.423 33.2988C142.15 33.8496 142.718 34.5469 143.128 35.3906C143.539 36.2227 143.744 37.1895 143.744 38.291V46.4473C143.744 47.4668 143.808 48.3105 143.937 48.9785C144.066 49.6465 144.253 50.2207 144.499 50.7012V51H139.542ZM134.884 47.5723C135.376 47.5723 135.833 47.5137 136.255 47.3965C136.677 47.2793 137.058 47.127 137.398 46.9395C137.738 46.752 138.031 46.541 138.277 46.3066C138.523 46.0605 138.716 45.8145 138.857 45.5684V42.2988H136.361C135.599 42.2988 134.949 42.375 134.41 42.5273C133.871 42.668 133.431 42.8672 133.091 43.125C132.751 43.3945 132.499 43.7168 132.335 44.0918C132.171 44.4551 132.089 44.8535 132.089 45.2871C132.089 45.627 132.148 45.9434 132.265 46.2363C132.394 46.5176 132.576 46.7578 132.81 46.957C133.044 47.1445 133.331 47.2969 133.671 47.4141C134.023 47.5195 134.427 47.5723 134.884 47.5723ZM161.499 31.6289C162.237 31.6289 162.917 31.6816 163.538 31.7871C164.171 31.8809 164.681 31.9863 165.067 32.1035L164.347 36.9727C163.702 36.8203 163.04 36.709 162.36 36.6387C161.692 36.5566 161.054 36.5156 160.444 36.5156C159.811 36.5156 159.237 36.5742 158.722 36.6914C158.218 36.7969 157.766 36.9609 157.368 37.1836C156.888 37.4414 156.477 37.7695 156.138 38.168C155.798 38.5664 155.516 39.0352 155.294 39.5742V51H150.407V31.9805H154.96L155.153 34.6699L155.188 35.0918C155.962 34.0137 156.888 33.1699 157.966 32.5605C159.044 31.9395 160.222 31.6289 161.499 31.6289ZM179.905 51C179.787 50.7656 179.688 50.4961 179.606 50.1914C179.524 49.8867 179.453 49.5645 179.395 49.2246C179.125 49.5176 178.815 49.793 178.463 50.0508C178.112 50.3086 177.725 50.5312 177.303 50.7188C176.869 50.918 176.395 51.0703 175.879 51.1758C175.364 51.293 174.807 51.3516 174.209 51.3516C173.237 51.3516 172.34 51.2109 171.52 50.9297C170.711 50.6484 170.014 50.2559 169.428 49.752C168.842 49.248 168.385 48.6504 168.057 47.959C167.729 47.2559 167.565 46.4941 167.565 45.6738C167.565 44.6191 167.77 43.6875 168.18 42.8789C168.59 42.0586 169.205 41.3848 170.026 40.8574C170.764 40.377 171.672 40.0137 172.75 39.7676C173.84 39.5098 175.088 39.3809 176.494 39.3809H179.219V38.2559C179.219 37.8105 179.149 37.4121 179.008 37.0605C178.868 36.6973 178.657 36.3867 178.375 36.1289C178.082 35.8594 177.713 35.6543 177.268 35.5137C176.834 35.3613 176.325 35.2852 175.739 35.2852C175.223 35.2852 174.778 35.3496 174.403 35.4785C174.028 35.5957 173.723 35.7656 173.489 35.9883C173.278 36.1875 173.119 36.4277 173.014 36.709C172.92 36.9902 172.873 37.3008 172.873 37.6406H167.987C167.987 36.832 168.162 36.0645 168.514 35.3379C168.877 34.6113 169.405 33.9727 170.096 33.4219C170.776 32.8711 171.608 32.4375 172.592 32.1211C173.588 31.793 174.725 31.6289 176.002 31.6289C177.151 31.6289 178.217 31.7695 179.201 32.0508C180.198 32.332 181.059 32.748 181.785 33.2988C182.512 33.8496 183.08 34.5469 183.491 35.3906C183.901 36.2227 184.106 37.1895 184.106 38.291V46.4473C184.106 47.4668 184.17 48.3105 184.299 48.9785C184.428 49.6465 184.616 50.2207 184.862 50.7012V51H179.905ZM175.246 47.5723C175.739 47.5723 176.196 47.5137 176.618 47.3965C177.039 47.2793 177.42 47.127 177.76 46.9395C178.1 46.752 178.393 46.541 178.639 46.3066C178.885 46.0605 179.078 45.8145 179.219 45.5684V42.2988H176.723C175.961 42.2988 175.311 42.375 174.772 42.5273C174.233 42.668 173.793 42.8672 173.453 43.125C173.114 43.3945 172.862 43.7168 172.698 44.0918C172.534 44.4551 172.451 44.8535 172.451 45.2871C172.451 45.627 172.51 45.9434 172.627 46.2363C172.756 46.5176 172.938 46.7578 173.172 46.957C173.407 47.1445 173.694 47.2969 174.034 47.4141C174.385 47.5195 174.789 47.5723 175.246 47.5723ZM194.25 51L186.99 31.9805H192.088L196.271 45.3926L196.535 46.7285L196.799 45.3926L200.965 31.9805H206.062L198.838 51H194.25ZM217.613 51.3516C216.148 51.3516 214.818 51.1113 213.622 50.6309C212.427 50.1504 211.402 49.4941 210.546 48.6621C209.691 47.8418 209.029 46.875 208.56 45.7617C208.103 44.6367 207.874 43.4355 207.874 42.1582V41.4551C207.874 40.002 208.103 38.6777 208.56 37.4824C209.017 36.2754 209.655 35.2383 210.476 34.3711C211.296 33.5039 212.269 32.8301 213.394 32.3496C214.519 31.8691 215.743 31.6289 217.068 31.6289C218.439 31.6289 219.657 31.8574 220.724 32.3145C221.802 32.7598 222.716 33.3926 223.466 34.2129C224.204 35.0332 224.767 36.0234 225.154 37.1836C225.54 38.332 225.734 39.6035 225.734 40.998V43.0723H212.831V43.125C212.995 43.8867 213.206 44.502 213.464 44.9707C213.722 45.4277 214.068 45.8438 214.501 46.2188C214.946 46.6055 215.456 46.9043 216.03 47.1152C216.605 47.3262 217.232 47.4316 217.911 47.4316C218.872 47.4316 219.804 47.25 220.706 46.8867C221.609 46.5234 222.341 45.9785 222.904 45.252L225.347 47.8887C224.726 48.7676 223.741 49.5645 222.394 50.2793C221.046 50.9941 219.452 51.3516 217.613 51.3516ZM217.032 35.584C216.482 35.584 215.978 35.6836 215.521 35.8828C215.064 36.0703 214.665 36.3457 214.325 36.709C213.974 37.0723 213.681 37.5059 213.446 38.0098C213.212 38.5137 213.036 39.0762 212.919 39.6973H220.935V39.3105C220.935 38.7949 220.841 38.3086 220.654 37.8516C220.466 37.3945 220.208 36.9961 219.88 36.6562C219.552 36.3281 219.148 36.0703 218.667 35.8828C218.198 35.6836 217.654 35.584 217.032 35.584ZM229.585 24H240.219V47.0273H245.669V51H229.585V47.0273H235.28V27.9902H229.585V24Z" fill="#2E2E2E"/>
<path d="M112.594 47.0098H111.594V48.0098H112.594V47.0098ZM124.582 47.0098H125.582V46.0098H124.582V47.0098ZM124.582 51V52H125.582V51H124.582ZM107.637 51H106.637V52H107.637V51ZM107.637 25.4062V24.4062H106.637V25.4062H107.637ZM112.594 25.4062H113.594V24.4062H112.594V25.4062ZM112.594 48.0098H124.582V46.0098H112.594V48.0098ZM123.582 47.0098V51H125.582V47.0098H123.582ZM124.582 50H107.637V52H124.582V50ZM108.637 51V25.4062H106.637V51H108.637ZM107.637 26.4062H112.594V24.4062H107.637V26.4062ZM111.594 25.4062V47.0098H113.594V25.4062H111.594ZM139.542 51L138.648 51.4472L138.924 52H139.542V51ZM139.033 49.2246L140.018 49.0547L139.673 47.0518L138.297 48.5476L139.033 49.2246ZM136.941 50.7188L136.535 49.8049L136.523 49.8101L136.941 50.7188ZM135.517 51.1758L135.317 50.1961L135.306 50.1982L135.295 50.2006L135.517 51.1758ZM131.158 50.9297L130.829 51.8742L130.833 51.8756L131.158 50.9297ZM127.695 47.959L126.789 48.3819L126.791 48.3877L127.695 47.959ZM127.818 42.8789L128.71 43.3313L128.712 43.3261L127.818 42.8789ZM129.664 40.8574L130.204 41.6986L130.209 41.6956L129.664 40.8574ZM132.388 39.7676L132.611 40.7425L132.618 40.7407L132.388 39.7676ZM138.857 39.3809V40.3809H139.857V39.3809H138.857ZM138.646 37.0605L137.713 37.4216L137.717 37.4319L138.646 37.0605ZM138.013 36.1289L137.336 36.8648L137.337 36.8661L138.013 36.1289ZM136.906 35.5137L136.574 36.4571L136.589 36.4624L136.605 36.4673L136.906 35.5137ZM134.04 35.4785L134.339 36.433L134.352 36.4288L134.366 36.4242L134.04 35.4785ZM133.126 35.9883L133.813 36.7153L133.815 36.7133L133.126 35.9883ZM132.652 36.709L131.715 36.3579L131.709 36.3752L131.703 36.3928L132.652 36.709ZM132.511 37.6406V38.6406H133.511V37.6406H132.511ZM127.624 37.6406H126.624V38.6406H127.624V37.6406ZM128.152 35.3379L127.257 34.8906L127.252 34.9023L128.152 35.3379ZM129.734 33.4219L130.357 34.2041L130.363 34.1988L129.734 33.4219ZM132.23 32.1211L132.536 33.0731L132.543 33.0709L132.23 32.1211ZM138.839 32.0508L138.565 33.0123L138.568 33.0132L138.839 32.0508ZM143.128 35.3906L142.229 35.8278L142.231 35.8328L143.128 35.3906ZM144.499 50.7012H145.499V50.46L145.389 50.2453L144.499 50.7012ZM144.499 51V52H145.499V51H144.499ZM138.277 46.3066L138.966 47.0308L138.975 47.0224L138.984 47.0137L138.277 46.3066ZM138.857 45.5684L139.725 46.0645L139.857 45.8339V45.5684H138.857ZM138.857 42.2988H139.857V41.2988H138.857V42.2988ZM134.41 42.5273L134.662 43.495L134.672 43.4924L134.682 43.4897L134.41 42.5273ZM133.091 43.125L132.487 42.3283L132.478 42.3348L132.47 42.3415L133.091 43.125ZM132.335 44.0918L133.247 44.5034L133.252 44.4926L132.335 44.0918ZM132.265 46.2363L131.337 46.6077L131.346 46.6306L131.356 46.653L132.265 46.2363ZM132.81 46.957L132.162 47.719L132.174 47.7286L132.185 47.7379L132.81 46.957ZM133.671 47.4141L133.345 48.3594L133.365 48.3661L133.384 48.3719L133.671 47.4141ZM140.437 50.5528C140.355 50.3889 140.277 50.1841 140.209 49.9314L138.278 50.4514C138.374 50.8081 138.496 51.1423 138.648 51.4472L140.437 50.5528ZM140.209 49.9314C140.136 49.659 140.072 49.367 140.018 49.0547L138.047 49.3945C138.111 49.7619 138.187 50.1144 138.278 50.4514L140.209 49.9314ZM138.297 48.5476C138.075 48.7886 137.814 49.0213 137.51 49.2444L138.692 50.8572C139.091 50.5646 139.451 50.2466 139.769 49.9017L138.297 48.5476ZM137.51 49.2444C137.219 49.4575 136.895 49.6448 136.535 49.8049L137.347 51.6326C137.83 51.4177 138.28 51.1597 138.692 50.8572L137.51 49.2444ZM136.523 49.8101C136.166 49.9743 135.765 50.1044 135.317 50.1961L135.717 52.1555C136.3 52.0363 136.849 51.8616 137.358 51.6274L136.523 49.8101ZM135.295 50.2006C134.861 50.2993 134.38 50.3516 133.847 50.3516V52.3516C134.51 52.3516 135.142 52.2866 135.739 52.1509L135.295 50.2006ZM133.847 50.3516C132.972 50.3516 132.186 50.2251 131.482 49.9837L130.833 51.8756C131.77 52.1967 132.777 52.3516 133.847 52.3516V50.3516ZM131.486 49.9852C130.783 49.7407 130.199 49.4074 129.718 48.9938L128.414 50.5101C129.105 51.1043 129.915 51.5561 130.829 51.8742L131.486 49.9852ZM129.718 48.9938C129.237 48.58 128.866 48.0942 128.598 47.5302L126.791 48.3877C127.18 49.2066 127.723 49.9161 128.414 50.5101L129.718 48.9938ZM128.601 47.5361C128.338 46.9729 128.203 46.3566 128.203 45.6738H126.203C126.203 46.6317 126.395 47.5388 126.789 48.3819L128.601 47.5361ZM128.203 45.6738C128.203 44.7507 128.381 43.9785 128.71 43.3313L126.926 42.4265C126.434 43.3965 126.203 44.4876 126.203 45.6738H128.203ZM128.712 43.3261C129.037 42.6768 129.525 42.1352 130.204 41.6986L129.123 40.0162C128.161 40.6344 127.419 41.4404 126.923 42.4317L128.712 43.3261ZM130.209 41.6956C130.827 41.2934 131.619 40.9688 132.611 40.7425L132.166 38.7927C131.001 39.0585 129.977 39.4605 129.118 40.0193L130.209 41.6956ZM132.618 40.7407C133.616 40.5046 134.785 40.3809 136.132 40.3809V38.3809C134.667 38.3809 133.339 38.5149 132.158 38.7944L132.618 40.7407ZM136.132 40.3809H138.857V38.3809H136.132V40.3809ZM139.857 39.3809V38.2559H137.857V39.3809H139.857ZM139.857 38.2559C139.857 37.7053 139.77 37.1777 139.574 36.6892L137.717 37.4319C137.803 37.6465 137.857 37.9158 137.857 38.2559H139.857ZM139.579 36.6996C139.384 36.1959 139.086 35.7558 138.689 35.3918L137.337 36.8661C137.503 37.0177 137.627 37.1986 137.713 37.4215L139.579 36.6996ZM138.69 35.393C138.272 35.0085 137.768 34.7373 137.207 34.5601L136.605 36.4673C136.934 36.5713 137.168 36.7103 137.336 36.8648L138.69 35.393ZM137.237 34.5702C136.672 34.3718 136.046 34.2852 135.376 34.2852V36.2852C135.879 36.2852 136.272 36.3509 136.574 36.4571L137.237 34.5702ZM135.376 34.2852C134.782 34.2852 134.221 34.359 133.715 34.5328L134.366 36.4242C134.61 36.3402 134.94 36.2852 135.376 36.2852V34.2852ZM133.742 34.524C133.252 34.6772 132.804 34.915 132.438 35.2633L133.815 36.7133C133.917 36.6162 134.079 36.5142 134.339 36.433L133.742 34.524ZM132.44 35.2613C132.114 35.5689 131.872 35.9391 131.715 36.3579L133.588 37.0601C133.642 36.9164 133.717 36.8061 133.813 36.7153L132.44 35.2613ZM131.703 36.3928C131.571 36.7897 131.511 37.2088 131.511 37.6406H133.511C133.511 37.3928 133.545 37.1908 133.6 37.0252L131.703 36.3928ZM132.511 36.6406H127.624V38.6406H132.511V36.6406ZM128.624 37.6406C128.624 36.9826 128.766 36.364 129.052 35.7735L127.252 34.9023C126.834 35.7649 126.624 36.6815 126.624 37.6406H128.624ZM129.046 35.7851C129.339 35.1997 129.769 34.6723 130.357 34.204L129.111 32.6397C128.316 33.273 127.691 34.0229 127.257 34.8907L129.046 35.7851ZM130.363 34.1988C130.931 33.7387 131.648 33.3584 132.536 33.0731L131.924 31.1691C130.843 31.5166 129.896 32.0035 129.104 32.6449L130.363 34.1988ZM132.543 33.0709C133.419 32.7824 134.447 32.6289 135.64 32.6289V30.6289C134.279 30.6289 133.033 30.8036 131.917 31.1713L132.543 33.0709ZM135.64 32.6289C136.707 32.6289 137.68 32.7595 138.565 33.0123L139.114 31.0893C138.03 30.7796 136.87 30.6289 135.64 30.6289V32.6289ZM138.568 33.0132C139.46 33.265 140.205 33.6299 140.819 34.0957L142.027 32.5019C141.189 31.8662 140.211 31.399 139.111 31.0884L138.568 33.0132ZM140.819 34.0957C141.417 34.5487 141.886 35.1213 142.229 35.8278L144.028 34.9534C143.551 33.9725 142.883 33.1505 142.027 32.5019L140.819 34.0957ZM142.231 35.8328C142.562 36.5038 142.744 37.3143 142.744 38.291H144.744C144.744 37.0646 144.515 35.9415 144.025 34.9485L142.231 35.8328ZM142.744 38.291V46.4473H144.744V38.291H142.744ZM142.744 46.4473C142.744 47.5023 142.81 48.415 142.955 49.168L144.919 48.789C144.806 48.2061 144.744 47.4313 144.744 46.4473H142.744ZM142.955 49.168C143.097 49.9057 143.311 50.5741 143.609 51.157L145.389 50.2453C145.196 49.8673 145.034 49.3872 144.919 48.789L142.955 49.168ZM143.499 50.7012V51H145.499V50.7012H143.499ZM144.499 50H139.542V52H144.499V50ZM134.884 48.5723C135.456 48.5723 136.004 48.5042 136.523 48.36L135.988 46.433C135.663 46.5232 135.297 46.5723 134.884 46.5723V48.5723ZM136.523 48.36C137.01 48.2246 137.465 48.0446 137.881 47.815L136.915 46.0639C136.651 46.2093 136.344 46.334 135.988 46.433L136.523 48.36ZM137.881 47.815C138.285 47.5919 138.65 47.332 138.966 47.0308L137.587 45.5825C137.411 45.7501 137.19 45.912 136.915 46.0639L137.881 47.815ZM138.984 47.0137C139.279 46.7185 139.532 46.4029 139.725 46.0645L137.989 45.0722C137.901 45.226 137.767 45.4026 137.57 45.5995L138.984 47.0137ZM139.857 45.5684V42.2988H137.857V45.5684H139.857ZM138.857 41.2988H136.361V43.2988H138.857V41.2988ZM136.361 41.2988C135.538 41.2988 134.79 41.3805 134.138 41.565L134.682 43.4897C135.107 43.3695 135.66 43.2988 136.361 43.2988V41.2988ZM134.157 41.5597C133.528 41.7239 132.958 41.9706 132.487 42.3283L133.696 43.9217C133.904 43.7638 134.213 43.612 134.662 43.495L134.157 41.5597ZM132.47 42.3415C132.01 42.7063 131.653 43.1573 131.419 43.691L133.252 44.4926C133.346 44.2763 133.493 44.0827 133.713 43.9085L132.47 42.3415ZM131.424 43.6802C131.197 44.1839 131.089 44.7242 131.089 45.2871H133.089C133.089 44.9828 133.146 44.7263 133.247 44.5034L131.424 43.6802ZM131.089 45.2871C131.089 45.7443 131.169 46.1878 131.337 46.6077L133.194 45.8649C133.127 45.6989 133.089 45.5096 133.089 45.2871H131.089ZM131.356 46.653C131.545 47.0662 131.816 47.4246 132.162 47.719L133.458 46.1951C133.335 46.0911 133.243 45.9689 133.174 45.8197L131.356 46.653ZM132.185 47.7379C132.525 48.0095 132.918 48.2121 133.345 48.3594L133.997 46.4687C133.745 46.3817 133.564 46.2796 133.435 46.1762L132.185 47.7379ZM133.384 48.3719C133.848 48.5112 134.353 48.5723 134.884 48.5723V46.5723C134.502 46.5723 134.197 46.5279 133.959 46.4562L133.384 48.3719ZM163.538 31.7871L163.371 32.773L163.381 32.7748L163.391 32.7763L163.538 31.7871ZM165.067 32.1035L166.056 32.2499L166.183 31.3966L165.357 31.1465L165.067 32.1035ZM164.347 36.9727L164.117 37.9458L165.176 38.1963L165.336 37.1191L164.347 36.9727ZM162.36 36.6387L162.238 37.6312L162.248 37.6324L162.257 37.6334L162.36 36.6387ZM158.722 36.6914L158.926 37.6702L158.935 37.6684L158.943 37.6665L158.722 36.6914ZM157.368 37.1836L157.841 38.0648L157.848 38.0607L157.856 38.0565L157.368 37.1836ZM155.294 39.5742L154.37 39.1925L154.294 39.3758V39.5742H155.294ZM155.294 51V52H156.294V51H155.294ZM150.407 51H149.407V52H150.407V51ZM150.407 31.9805V30.9805H149.407V31.9805H150.407ZM154.96 31.9805L155.957 31.9088L155.891 30.9805H154.96V31.9805ZM155.153 34.6699L154.156 34.7416L154.157 34.753L155.153 34.6699ZM155.188 35.0918L154.192 35.1748L154.417 37.882L156.001 35.6747L155.188 35.0918ZM157.966 32.5605L158.458 33.4311L158.465 33.427L157.966 32.5605ZM161.499 32.6289C162.19 32.6289 162.813 32.6784 163.371 32.773L163.705 30.8012C163.021 30.6849 162.284 30.6289 161.499 30.6289V32.6289ZM163.391 32.7763C164 32.8665 164.456 32.9633 164.777 33.0605L165.357 31.1465C164.905 31.0093 164.341 30.8952 163.685 30.7979L163.391 32.7763ZM164.078 31.9571L163.357 36.8262L165.336 37.1191L166.056 32.2499L164.078 31.9571ZM164.577 35.9995C163.889 35.8369 163.184 35.7186 162.463 35.644L162.257 37.6334C162.896 37.6994 163.515 37.8037 164.117 37.9458L164.577 35.9995ZM162.482 35.6461C161.778 35.5596 161.098 35.5156 160.444 35.5156V37.5156C161.009 37.5156 161.607 37.5536 162.238 37.6312L162.482 35.6461ZM160.444 35.5156C159.751 35.5156 159.101 35.5797 158.5 35.7163L158.943 37.6665C159.374 37.5687 159.872 37.5156 160.444 37.5156V35.5156ZM158.517 35.7126C157.926 35.8362 157.378 36.0327 156.88 36.3107L157.856 38.0565C158.155 37.8892 158.509 37.7575 158.926 37.6702L158.517 35.7126ZM156.895 36.3024C156.31 36.6166 155.801 37.0221 155.377 37.519L156.898 38.8169C157.154 38.517 157.465 38.2662 157.841 38.0648L156.895 36.3024ZM155.377 37.519C154.961 38.0059 154.628 38.5672 154.37 39.1925L156.218 39.956C156.405 39.5031 156.634 39.1269 156.898 38.8169L155.377 37.519ZM154.294 39.5742V51H156.294V39.5742H154.294ZM155.294 50H150.407V52H155.294V50ZM151.407 51V31.9805H149.407V51H151.407ZM150.407 32.9805H154.96V30.9805H150.407V32.9805ZM153.962 32.0522L154.156 34.7416L156.151 34.5982L155.957 31.9088L153.962 32.0522ZM154.157 34.753L154.192 35.1748L156.185 35.0088L156.15 34.5869L154.157 34.753ZM156.001 35.6747C156.696 34.706 157.515 33.964 158.458 33.4311L157.474 31.69C156.26 32.3758 155.228 33.3213 154.376 34.5089L156.001 35.6747ZM158.465 33.427C159.387 32.8958 160.392 32.6289 161.499 32.6289V30.6289C160.051 30.6289 158.701 30.9831 157.467 31.694L158.465 33.427ZM179.905 51L179.01 51.4472L179.287 52H179.905V51ZM179.395 49.2246L180.38 49.0547L180.035 47.0518L178.659 48.5476L179.395 49.2246ZM177.303 50.7188L176.897 49.8049L176.886 49.8101L177.303 50.7188ZM175.879 51.1758L175.679 50.1961L175.668 50.1982L175.658 50.2006L175.879 51.1758ZM171.52 50.9297L171.191 51.8742L171.196 51.8756L171.52 50.9297ZM168.057 47.959L167.151 48.3819L167.154 48.3877L168.057 47.959ZM168.18 42.8789L169.072 43.3313L169.074 43.3261L168.18 42.8789ZM170.026 40.8574L170.566 41.6986L170.571 41.6956L170.026 40.8574ZM172.75 39.7676L172.973 40.7425L172.981 40.7407L172.75 39.7676ZM179.219 39.3809V40.3809H180.219V39.3809H179.219ZM179.008 37.0605L178.075 37.4216L178.08 37.4319L179.008 37.0605ZM178.375 36.1289L177.698 36.8648L177.7 36.8661L178.375 36.1289ZM177.268 35.5137L176.936 36.4571L176.952 36.4624L176.967 36.4673L177.268 35.5137ZM174.403 35.4785L174.701 36.433L174.714 36.4288L174.728 36.4242L174.403 35.4785ZM173.489 35.9883L174.175 36.7153L174.177 36.7133L173.489 35.9883ZM173.014 36.709L172.078 36.3579L172.071 36.3752L172.065 36.3928L173.014 36.709ZM172.873 37.6406V38.6406H173.873V37.6406H172.873ZM167.987 37.6406H166.987V38.6406H167.987V37.6406ZM168.514 35.3379L167.619 34.8906L167.614 34.9023L168.514 35.3379ZM170.096 33.4219L170.719 34.2041L170.726 34.1988L170.096 33.4219ZM172.592 32.1211L172.898 33.0731L172.905 33.0709L172.592 32.1211ZM179.201 32.0508L178.927 33.0123L178.93 33.0132L179.201 32.0508ZM183.491 35.3906L182.591 35.8278L182.594 35.8328L183.491 35.3906ZM184.862 50.7012H185.862V50.46L185.752 50.2453L184.862 50.7012ZM184.862 51V52H185.862V51H184.862ZM178.639 46.3066L179.329 47.0308L179.337 47.0224L179.346 47.0137L178.639 46.3066ZM179.219 45.5684L180.087 46.0645L180.219 45.8339V45.5684H179.219ZM179.219 42.2988H180.219V41.2988H179.219V42.2988ZM174.772 42.5273L175.024 43.495L175.034 43.4924L175.044 43.4897L174.772 42.5273ZM173.453 43.125L172.849 42.3283L172.84 42.3348L172.832 42.3415L173.453 43.125ZM172.698 44.0918L173.609 44.5034L173.614 44.4926L172.698 44.0918ZM172.627 46.2363L171.699 46.6077L171.708 46.6306L171.718 46.653L172.627 46.2363ZM173.172 46.957L172.525 47.719L172.536 47.7286L172.547 47.7379L173.172 46.957ZM174.034 47.4141L173.708 48.3594L173.727 48.3661L173.746 48.3719L174.034 47.4141ZM180.799 50.5528C180.717 50.3889 180.639 50.1841 180.571 49.9314L178.64 50.4514C178.736 50.8081 178.858 51.1423 179.01 51.4472L180.799 50.5528ZM180.571 49.9314C180.498 49.659 180.434 49.367 180.38 49.0547L178.409 49.3945C178.473 49.7619 178.549 50.1144 178.64 50.4514L180.571 49.9314ZM178.659 48.5476C178.437 48.7886 178.176 49.0213 177.872 49.2444L179.055 50.8572C179.454 50.5646 179.813 50.2466 180.131 49.9017L178.659 48.5476ZM177.872 49.2444C177.581 49.4575 177.257 49.6448 176.897 49.8049L177.709 51.6326C178.193 51.4177 178.642 51.1597 179.055 50.8572L177.872 49.2444ZM176.886 49.8101C176.528 49.9743 176.127 50.1044 175.679 50.1961L176.08 52.1555C176.663 52.0363 177.211 51.8616 177.721 51.6274L176.886 49.8101ZM175.658 50.2006C175.223 50.2993 174.742 50.3516 174.209 50.3516V52.3516C174.872 52.3516 175.504 52.2866 176.101 52.1509L175.658 50.2006ZM174.209 50.3516C173.334 50.3516 172.548 50.2251 171.844 49.9837L171.196 51.8756C172.132 52.1967 173.14 52.3516 174.209 52.3516V50.3516ZM171.848 49.9852C171.146 49.7407 170.561 49.4074 170.08 48.9938L168.776 50.5101C169.467 51.1043 170.277 51.5561 171.191 51.8742L171.848 49.9852ZM170.08 48.9938C169.599 48.58 169.228 48.0942 168.96 47.5302L167.154 48.3877C167.542 49.2066 168.085 49.9161 168.776 50.5101L170.08 48.9938ZM168.963 47.5361C168.7 46.9729 168.565 46.3566 168.565 45.6738H166.565C166.565 46.6317 166.757 47.5388 167.151 48.3819L168.963 47.5361ZM168.565 45.6738C168.565 44.7507 168.744 43.9785 169.072 43.3313L167.288 42.4265C166.796 43.3965 166.565 44.4876 166.565 45.6738H168.565ZM169.074 43.3261C169.399 42.6768 169.887 42.1352 170.566 41.6986L169.485 40.0162C168.523 40.6344 167.781 41.4404 167.286 42.4317L169.074 43.3261ZM170.571 41.6956C171.189 41.2934 171.981 40.9688 172.973 40.7425L172.528 38.7927C171.363 39.0585 170.339 39.4605 169.48 40.0193L170.571 41.6956ZM172.981 40.7407C173.979 40.5046 175.147 40.3809 176.494 40.3809V38.3809C175.029 38.3809 173.702 38.5149 172.52 38.7944L172.981 40.7407ZM176.494 40.3809H179.219V38.3809H176.494V40.3809ZM180.219 39.3809V38.2559H178.219V39.3809H180.219ZM180.219 38.2559C180.219 37.7053 180.132 37.1777 179.937 36.6892L178.08 37.4319C178.165 37.6465 178.219 37.9158 178.219 38.2559H180.219ZM179.941 36.6996C179.746 36.1959 179.448 35.7558 179.051 35.3918L177.7 36.8661C177.865 37.0177 177.989 37.1986 178.076 37.4215L179.941 36.6996ZM179.052 35.393C178.634 35.0085 178.13 34.7373 177.569 34.5601L176.967 36.4673C177.296 36.5713 177.53 36.7103 177.698 36.8648L179.052 35.393ZM177.599 34.5702C177.035 34.3718 176.408 34.2852 175.739 34.2852V36.2852C176.241 36.2852 176.634 36.3509 176.936 36.4571L177.599 34.5702ZM175.739 34.2852C175.144 34.2852 174.583 34.359 174.078 34.5328L174.728 36.4242C174.972 36.3402 175.302 36.2852 175.739 36.2852V34.2852ZM174.104 34.524C173.614 34.6772 173.166 34.915 172.8 35.2633L174.177 36.7133C174.279 36.6162 174.441 36.5142 174.701 36.433L174.104 34.524ZM172.802 35.2613C172.476 35.5689 172.235 35.9391 172.078 36.3579L173.95 37.0601C174.004 36.9164 174.079 36.8061 174.175 36.7153L172.802 35.2613ZM172.065 36.3928C171.933 36.7897 171.873 37.2088 171.873 37.6406H173.873C173.873 37.3928 173.907 37.1908 173.963 37.0252L172.065 36.3928ZM172.873 36.6406H167.987V38.6406H172.873V36.6406ZM168.987 37.6406C168.987 36.9826 169.128 36.364 169.414 35.7735L167.614 34.9023C167.196 35.7649 166.987 36.6815 166.987 37.6406H168.987ZM169.408 35.7851C169.701 35.1997 170.131 34.6723 170.719 34.204L169.473 32.6397C168.678 33.273 168.053 34.0229 167.62 34.8907L169.408 35.7851ZM170.726 34.1988C171.293 33.7387 172.011 33.3584 172.898 33.0731L172.286 31.1691C171.205 31.5166 170.258 32.0035 169.466 32.6449L170.726 34.1988ZM172.905 33.0709C173.781 32.7824 174.809 32.6289 176.002 32.6289V30.6289C174.641 30.6289 173.396 30.8036 172.279 31.1713L172.905 33.0709ZM176.002 32.6289C177.069 32.6289 178.042 32.7595 178.927 33.0123L179.476 31.0893C178.392 30.7796 177.232 30.6289 176.002 30.6289V32.6289ZM178.93 33.0132C179.822 33.265 180.567 33.6299 181.181 34.0957L182.39 32.5019C181.551 31.8662 180.573 31.399 179.473 31.0884L178.93 33.0132ZM181.181 34.0957C181.779 34.5487 182.248 35.1213 182.591 35.8278L184.39 34.9534C183.913 33.9725 183.245 33.1505 182.39 32.5019L181.181 34.0957ZM182.594 35.8328C182.924 36.5038 183.106 37.3143 183.106 38.291H185.106C185.106 37.0646 184.877 35.9415 184.387 34.9485L182.594 35.8328ZM183.106 38.291V46.4473H185.106V38.291H183.106ZM183.106 46.4473C183.106 47.5023 183.172 48.415 183.317 49.168L185.281 48.789C185.169 48.2061 185.106 47.4313 185.106 46.4473H183.106ZM183.317 49.168C183.46 49.9057 183.673 50.5741 183.972 51.157L185.752 50.2453C185.558 49.8673 185.396 49.3872 185.281 48.789L183.317 49.168ZM183.862 50.7012V51H185.862V50.7012H183.862ZM184.862 50H179.905V52H184.862V50ZM175.246 48.5723C175.818 48.5723 176.366 48.5042 176.885 48.36L176.35 46.433C176.025 46.5232 175.659 46.5723 175.246 46.5723V48.5723ZM176.885 48.36C177.373 48.2246 177.827 48.0446 178.243 47.815L177.277 46.0639C177.013 46.2093 176.706 46.334 176.35 46.433L176.885 48.36ZM178.243 47.815C178.648 47.5919 179.012 47.332 179.329 47.0308L177.949 45.5825C177.773 45.7501 177.552 45.912 177.277 46.0639L178.243 47.815ZM179.346 47.0137C179.641 46.7185 179.894 46.4029 180.087 46.0645L178.351 45.0722C178.263 45.226 178.129 45.4026 177.932 45.5995L179.346 47.0137ZM180.219 45.5684V42.2988H178.219V45.5684H180.219ZM179.219 41.2988H176.723V43.2988H179.219V41.2988ZM176.723 41.2988C175.9 41.2988 175.153 41.3805 174.5 41.565L175.044 43.4897C175.469 43.3695 176.023 43.2988 176.723 43.2988V41.2988ZM174.519 41.5597C173.89 41.7239 173.321 41.9706 172.849 42.3283L174.058 43.9217C174.266 43.7638 174.575 43.612 175.024 43.495L174.519 41.5597ZM172.832 42.3415C172.372 42.7063 172.015 43.1573 171.781 43.691L173.614 44.4926C173.708 44.2763 173.855 44.0827 174.075 43.9085L172.832 42.3415ZM171.786 43.6802C171.559 44.1839 171.451 44.7242 171.451 45.2871H173.451C173.451 44.9828 173.508 44.7263 173.609 44.5034L171.786 43.6802ZM171.451 45.2871C171.451 45.7443 171.531 46.1878 171.699 46.6077L173.556 45.8649C173.489 45.6989 173.451 45.5096 173.451 45.2871H171.451ZM171.718 46.653C171.908 47.0662 172.178 47.4246 172.525 47.719L173.82 46.1951C173.697 46.0911 173.605 45.9689 173.536 45.8197L171.718 46.653ZM172.547 47.7379C172.887 48.0095 173.28 48.2121 173.708 48.3594L174.36 46.4687C174.107 46.3817 173.926 46.2796 173.797 46.1762L172.547 47.7379ZM173.746 48.3719C174.211 48.5112 174.715 48.5723 175.246 48.5723V46.5723C174.864 46.5723 174.56 46.5279 174.321 46.4562L173.746 48.3719ZM194.25 51L193.316 51.3566L193.561 52H194.25V51ZM186.99 31.9805V30.9805H185.538L186.056 32.3371L186.99 31.9805ZM192.088 31.9805L193.042 31.6827L192.823 30.9805H192.088V31.9805ZM196.271 45.3926L197.252 45.1989L197.242 45.1462L197.226 45.0948L196.271 45.3926ZM196.535 46.7285L195.554 46.9221H197.516L196.535 46.7285ZM196.799 45.3926L195.844 45.0959L195.828 45.1468L195.818 45.1989L196.799 45.3926ZM200.965 31.9805V30.9805H200.228L200.01 31.6838L200.965 31.9805ZM206.062 31.9805L206.997 32.3356L207.512 30.9805H206.062V31.9805ZM198.838 51V52H199.528L199.772 51.3551L198.838 51ZM195.184 50.6434L187.924 31.6239L186.056 32.3371L193.316 51.3566L195.184 50.6434ZM186.99 32.9805H192.088V30.9805H186.99V32.9805ZM191.133 32.2782L195.317 45.6904L197.226 45.0948L193.042 31.6827L191.133 32.2782ZM195.29 45.5862L195.554 46.9221L197.516 46.5349L197.252 45.1989L195.29 45.5862ZM197.516 46.9221L197.78 45.5862L195.818 45.1989L195.554 46.5349L197.516 46.9221ZM197.754 45.6892L201.92 32.2771L200.01 31.6838L195.844 45.0959L197.754 45.6892ZM200.965 32.9805H206.062V30.9805H200.965V32.9805ZM205.127 31.6254L197.903 50.6449L199.772 51.3551L206.997 32.3356L205.127 31.6254ZM198.838 50H194.25V52H198.838V50ZM210.546 48.6621L211.243 47.9452L211.238 47.9403L210.546 48.6621ZM208.56 45.7617L207.633 46.1381L207.638 46.1498L208.56 45.7617ZM208.56 37.4824L209.494 37.8396L209.495 37.8365L208.56 37.4824ZM220.724 32.3145L220.33 33.2337L220.342 33.2387L220.724 32.3145ZM223.466 34.2129L224.209 33.5439L224.204 33.5381L223.466 34.2129ZM225.154 37.1836L224.205 37.4998L224.206 37.5027L225.154 37.1836ZM225.734 43.0723V44.0723H226.734V43.0723H225.734ZM212.831 43.0723V42.0723H211.831V43.0723H212.831ZM212.831 43.125H211.831V43.2315L211.854 43.3356L212.831 43.125ZM213.464 44.9707L212.588 45.4526L212.593 45.462L213.464 44.9707ZM214.501 46.2188L215.157 45.4637L215.155 45.4624L214.501 46.2188ZM222.904 45.252L223.637 44.5723L222.835 43.7068L222.113 44.6398L222.904 45.252ZM225.347 47.8887L226.164 48.4658L226.631 47.8037L226.08 47.209L225.347 47.8887ZM222.394 50.2793L221.925 49.3959L222.394 50.2793ZM215.521 35.8828L215.9 36.808L215.91 36.8039L215.92 36.7995L215.521 35.8828ZM214.325 36.709L215.044 37.4044L215.05 37.3983L215.056 37.3921L214.325 36.709ZM212.919 39.6973L211.936 39.5119L211.713 40.6973H212.919V39.6973ZM220.935 39.6973V40.6973H221.935V39.6973H220.935ZM219.88 36.6562L220.599 35.9617L220.593 35.9553L220.587 35.9491L219.88 36.6562ZM218.667 35.8828L218.276 36.8031L218.29 36.809L218.304 36.8144L218.667 35.8828ZM217.613 50.3516C216.258 50.3516 215.057 50.1297 213.995 49.703L213.249 51.5587C214.578 52.0929 216.037 52.3516 217.613 52.3516V50.3516ZM213.995 49.703C212.911 49.2672 211.998 48.6795 211.243 47.9453L209.849 49.379C210.805 50.3088 211.943 51.0336 213.249 51.5587L213.995 49.703ZM211.238 47.9403C210.483 47.2163 209.898 46.3637 209.481 45.3737L207.638 46.1498C208.159 47.3863 208.898 48.4673 209.854 49.3839L211.238 47.9403ZM209.486 45.3853C209.08 44.386 208.874 43.3133 208.874 42.1582H206.874C206.874 43.5578 207.125 44.8874 207.633 46.1381L209.486 45.3853ZM208.874 42.1582V41.4551H206.874V42.1582H208.874ZM208.874 41.4551C208.874 40.1076 209.086 38.9065 209.494 37.8396L207.626 37.1253C207.12 38.449 206.874 39.8963 206.874 41.4551H208.874ZM209.495 37.8365C209.909 36.7431 210.48 35.8218 211.202 35.0583L209.749 33.6839C208.831 34.6548 208.125 35.8077 207.625 37.1283L209.495 37.8365ZM211.202 35.0583C211.926 34.2931 212.784 33.6973 213.787 33.2692L213.001 31.43C211.753 31.9629 210.666 32.7147 209.749 33.6839L211.202 35.0583ZM213.787 33.2692C214.777 32.8461 215.867 32.6289 217.068 32.6289V30.6289C215.62 30.6289 214.26 30.8922 213.001 31.43L213.787 33.2692ZM217.068 32.6289C218.327 32.6289 219.408 32.8387 220.33 33.2336L221.118 31.3953C219.906 30.8761 218.55 30.6289 217.068 30.6289V32.6289ZM220.342 33.2387C221.291 33.6308 222.082 34.181 222.728 34.8877L224.204 33.5381C223.35 32.6042 222.312 31.8887 221.106 31.3902L220.342 33.2387ZM222.723 34.8819C223.36 35.5894 223.857 36.4559 224.205 37.4998L226.102 36.8674C225.677 35.5909 225.049 34.477 224.209 33.5439L222.723 34.8819ZM224.206 37.5027C224.553 38.5341 224.734 39.696 224.734 40.998H226.734C226.734 39.5111 226.527 38.1299 226.101 36.8645L224.206 37.5027ZM224.734 40.998V43.0723H226.734V40.998H224.734ZM225.734 42.0723H212.831V44.0723H225.734V42.0723ZM211.831 43.0723V43.125H213.831V43.0723H211.831ZM211.854 43.3356C212.03 44.153 212.267 44.8697 212.588 45.4526L214.34 44.4888C214.145 44.1342 213.961 43.6204 213.809 42.9144L211.854 43.3356ZM212.593 45.462C212.912 46.0281 213.334 46.5318 213.847 46.9751L215.155 45.4624C214.801 45.1557 214.531 44.8274 214.335 44.4794L212.593 45.462ZM213.845 46.9738C214.386 47.443 215.002 47.8027 215.686 48.0539L216.375 46.1766C215.911 46.0059 215.507 45.7679 215.157 45.4637L213.845 46.9738ZM215.686 48.0539C216.382 48.3097 217.127 48.4316 217.911 48.4316V46.4316C217.336 46.4316 216.827 46.3427 216.375 46.1766L215.686 48.0539ZM217.911 48.4316C219.002 48.4316 220.06 48.2248 221.08 47.8144L220.333 45.9591C219.548 46.2752 218.743 46.4316 217.911 46.4316V48.4316ZM221.08 47.8144C222.137 47.3888 223.017 46.7393 223.694 45.8641L222.113 44.6398C221.665 45.2177 221.081 45.658 220.333 45.9591L221.08 47.8144ZM222.17 45.9317L224.613 48.5684L226.08 47.209L223.637 44.5723L222.17 45.9317ZM224.53 47.3116C224.029 48.0204 223.188 48.7258 221.925 49.3959L222.862 51.1627C224.294 50.4031 225.422 49.5147 226.164 48.4658L224.53 47.3116ZM221.925 49.3959C220.749 50.0199 219.322 50.3516 217.613 50.3516V52.3516C219.582 52.3516 221.343 51.9684 222.862 51.1627L221.925 49.3959ZM217.032 34.584C216.359 34.584 215.717 34.7064 215.121 34.9661L215.92 36.7995C216.239 36.6607 216.605 36.584 217.032 36.584V34.584ZM215.141 34.9576C214.55 35.2001 214.032 35.5584 213.595 36.0258L215.056 37.3921C215.298 37.133 215.577 36.9406 215.9 36.808L215.141 34.9576ZM213.607 36.0136C213.17 36.4645 212.817 36.993 212.54 37.588L214.353 38.4315C214.545 38.0187 214.777 37.68 215.044 37.4044L213.607 36.0136ZM212.54 37.588C212.266 38.1767 212.067 38.8201 211.936 39.5119L213.902 39.8827C214.006 39.3323 214.158 38.8506 214.353 38.4315L212.54 37.588ZM212.919 40.6973H220.935V38.6973H212.919V40.6973ZM221.935 39.6973V39.3105H219.935V39.6973H221.935ZM221.935 39.3105C221.935 38.6705 221.818 38.0547 221.579 37.472L219.728 38.2311C219.864 38.5625 219.935 38.9193 219.935 39.3105H221.935ZM221.579 37.472C221.345 36.9033 221.02 36.3967 220.599 35.9617L219.161 37.3508C219.397 37.5955 219.587 37.8857 219.728 38.2311L221.579 37.472ZM220.587 35.9491C220.151 35.5129 219.626 35.1834 219.031 34.9512L218.304 36.8144C218.67 36.9572 218.953 37.1434 219.173 37.3634L220.587 35.9491ZM219.058 34.9625C218.442 34.7005 217.759 34.584 217.032 34.584V36.584C217.548 36.584 217.955 36.6667 218.276 36.8031L219.058 34.9625ZM229.585 24V23H228.585V24H229.585ZM240.219 24H241.219V23H240.219V24ZM240.219 47.0273H239.219V48.0273H240.219V47.0273ZM245.669 47.0273H246.669V46.0273H245.669V47.0273ZM245.669 51V52H246.669V51H245.669ZM229.585 51H228.585V52H229.585V51ZM229.585 47.0273V46.0273H228.585V47.0273H229.585ZM235.28 47.0273V48.0273H236.28V47.0273H235.28ZM235.28 27.9902H236.28V26.9902H235.28V27.9902ZM229.585 27.9902H228.585V28.9902H229.585V27.9902ZM229.585 25H240.219V23H229.585V25ZM239.219 24V47.0273H241.219V24H239.219ZM240.219 48.0273H245.669V46.0273H240.219V48.0273ZM244.669 47.0273V51H246.669V47.0273H244.669ZM245.669 50H229.585V52H245.669V50ZM230.585 51V47.0273H228.585V51H230.585ZM229.585 48.0273H235.28V46.0273H229.585V48.0273ZM236.28 47.0273V27.9902H234.28V47.0273H236.28ZM235.28 26.9902H229.585V28.9902H235.28V26.9902ZM230.585 27.9902V24H228.585V27.9902H230.585Z" fill="white" mask="url(#path-3-outside-2_630_49)"/>
<path d="M47.0217 40.3272L19.4938 0V34.5217L35.1188 57.5851L47.0232 40.3242" fill="#1A1918"/>
<path d="M47.0217 40.3272L58.7779 57.7377L74.4029 34.9707V0L47.0217 40.3272Z" fill="#ED9D4A"/>
<path d="M46.875 40.3271L35.1188 57.588L46.875 74.8489L58.6312 57.588L46.875 40.3271Z" fill="#BA7730"/>
<path d="M0 75H19.4938V34.6728L0 5.95361V75Z" fill="#4CB2D4"/>
<path d="M0 0V5.95217L19.4938 34.5217V0H0Z" fill="#1C82AD"/>
<path d="M74.4029 34.9707V75H93.8967V6.39966L74.4029 34.9707Z" fill="#C02439"/>
<path d="M93.8967 0H74.4029V34.821L93.8967 6.25V0Z" fill="#8F212F"/>
</g>
<defs>
<clipPath id="clip0_630_49">
<rect width="407" height="75" fill="white"/>
</clipPath>
</defs>
</svg>
